G04 ================== begin FILE IDENTIFICATION RECORD ==================*
G04 Layout Name:  D:/Cadence/Cadence_folder/base_02_PCB/my_pcb01.brd*
G04 Film Name:    BOTTOM*
G04 File Format:  Gerber RS274X*
G04 File Origin:  Cadence Allegro 23.1-P001*
G04 Origin Date:  Wed Apr 22 11:28:50 2026*
G04 *
G04 Layer:  ETCH/BOTTOM*
G04 Layer:  PIN/BOTTOM*
G04 Layer:  VIA CLASS/BOTTOM*
G04 *
G04 Offset:    (0.00 0.00)*
G04 Mirror:    No*
G04 Mode:      Positive*
G04 Rotation:  0*
G04 FullContactRelief:  No*
G04 UndefLineWidth:     0.00*
G04 ================== end FILE IDENTIFICATION RECORD ====================*
%FSLAX55Y55*MOIN*%
%IR0*IPPOS*OFA0.00000B0.00000*MIA0B0*SFA1.00000B1.00000*%
%ADD11C,.016*%
%ADD10C,.06299*%
%ADD12C,.02*%
%ADD13C,.015*%
%ADD14C,.008*%
%ADD15C,.07302*%
G75*
%LPD*%
G75*
G36*
G01X2000Y-2000D02*
X289339D01*
Y-8357D01*
G02X288616Y-8593I-400J0D01*
G03X285669Y-7097I-2947J-2155D01*
G03Y-14399I0J-3651D01*
G03X288616Y-12903I0J3651D01*
G02X289339Y-13139I323J-236D01*
G01Y-18357D01*
G02X288616Y-18593I-400J0D01*
G03X285669Y-17097I-2947J-2155D01*
G03Y-24399I0J-3651D01*
G03X288616Y-22903I0J3651D01*
G02X289339Y-23139I323J-236D01*
G01Y-150168D01*
G02X288616Y-150404I-400J0D01*
G03X285669Y-148908I-2947J-2155D01*
G03Y-156210I0J-3651D01*
G03X288616Y-154714I0J3651D01*
G02X289339Y-154950I323J-236D01*
G01Y-160168D01*
G02X288616Y-160404I-400J0D01*
G03X285669Y-158908I-2947J-2155D01*
G03Y-166210I0J-3651D01*
G03X288616Y-164714I0J3651D01*
G02X289339Y-164950I323J-236D01*
G01Y-194850D01*
X2000D01*
Y-164951D01*
G02X2723Y-164715I400J0D01*
G03X5669Y-166210I2946J2155D01*
G03X8552Y-164799I0J3651D01*
G02X9268Y-165045I316J-246D01*
G01Y-181014D01*
G03X9678Y-182005I1401J-1D01*
G01X15564Y-187891D01*
G03X16555Y-188302I992J991D01*
G01X31360D01*
G03Y-185498I0J1402D01*
G01X17136D01*
X12070Y-180433D01*
Y-165045D01*
G02X12786Y-164799I400J0D01*
G03X15669Y-166210I2883J2240D01*
G03X18011Y-165360I0J3651D01*
G02X18668Y-165667I257J-307D01*
G01Y-178502D01*
X18585Y-178585D01*
G03X17998Y-180000I1415J-1416D01*
G03X20000Y-182002I2002J0D01*
G03X21415Y-181415I-1J2002D01*
G01X22084Y-180746D01*
G03X22670Y-179331I-1415J1415D01*
G01Y-165667D01*
G02X23327Y-165360I400J0D01*
G03X25669Y-166210I2342J2801D01*
G03X27953Y-165407I0J3650D01*
G02X28604Y-165719I251J-312D01*
G01Y-180005D01*
G03X29014Y-180996I1401J-1D01*
G01X30709Y-182691D01*
G03X31700Y-183102I992J991D01*
G01X85300D01*
X88540Y-186341D01*
G03X89531Y-186752I992J991D01*
G01X177669D01*
G03X178660Y-186341I-1J1402D01*
G01X186660Y-178341D01*
G03X187070Y-177350I-991J990D01*
G01Y-165930D01*
G03X189320Y-162559I-1400J3371D01*
G03X187770Y-159573I-3651J0D01*
G02X187860Y-158872I231J327D01*
G03X188360Y-158550I-492J1313D01*
G01X191660Y-155250D01*
G03X191982Y-154750I-991J992D01*
G02X192683Y-154660I374J-141D01*
G03X195669Y-156210I2986J2101D01*
G03Y-148908I0J3651D01*
G03X192786Y-150319I0J-3651D01*
G02X192070Y-150073I-316J246D01*
G01Y-75000D01*
X193336D01*
Y-75997D01*
G03X193746Y-76988I1401J-1D01*
G01X244009Y-127251D01*
G03X245000Y-127662I992J991D01*
G03X246402Y-126260I0J1402D01*
G03X245991Y-125269I-1402J-1D01*
G01X240306Y-119584D01*
G02X240589Y-118902I283J282D01*
G01X272500D01*
G03Y-116098I0J1402D01*
G01X240581D01*
X228491Y-104009D01*
G03X227500Y-103598I-992J-991D01*
G03X226157Y-104600I0J-1401D01*
G02X225491Y-104769I-383J114D01*
G01X196138Y-75416D01*
Y-71775D01*
G02X196605Y-71381I400J-1D01*
G03X196838Y-71400I230J1382D01*
G03X197829Y-70990I1J1401D01*
G01X200976Y-67843D01*
G02X201318Y-67984I142J-141D01*
G01Y-68138D01*
X197947Y-71509D01*
G03X197536Y-72500I991J-992D01*
G03X198938Y-73902I1402J0D01*
G03X199929Y-73491I-1J1402D01*
G01X200276Y-73144D01*
G02X200919Y-73255I282J-283D01*
G03X201262Y-73738I1579J758D01*
G01X203762Y-76238D01*
G03X205000Y-76752I1239J1237D01*
G01X212500D01*
G03X213069Y-76657I0J1752D01*
G02X213598Y-77035I129J-378D01*
G01Y-85000D01*
G03X214009Y-85991I1402J1D01*
G01X219009Y-90991D01*
G03X220000Y-91402I992J991D01*
G03X221402Y-90000I0J1402D01*
G03X220991Y-89009I-1402J-1D01*
G01X216402Y-84419D01*
Y-52500D01*
G03X213598I-1402J0D01*
G01Y-72965D01*
G02X213069Y-73343I-400J0D01*
G03X212500Y-73248I-569J-1657D01*
G01X205725D01*
X203738Y-71262D01*
G03X203255Y-70919I-1241J-1236D01*
G02X203144Y-70276I172J361D01*
G01X203710Y-69710D01*
G03X204120Y-68719I-991J990D01*
G01Y-60362D01*
X214781Y-49702D01*
X238973D01*
X239338Y-50066D01*
G02X239055Y-50748I-283J-282D01*
G01X227500D01*
G03Y-54252I0J-1752D01*
G01X242500D01*
G03X243550Y-53902I-1J1752D01*
G01X272288D01*
G03X273279Y-53491I-1J1402D01*
G01X275779Y-50991D01*
G03X276190Y-50000I-991J992D01*
G03X274788Y-48598I-1402J0D01*
G03X273797Y-49009I1J-1402D01*
G01X271707Y-51098D01*
X243550D01*
G03X242914Y-50798I-1050J-1402D01*
G02X242619Y-50319I94J389D01*
G03X242656Y-50000I-1365J320D01*
G03X242245Y-49009I-1402J-1D01*
G01X240545Y-47309D01*
G03X239554Y-46898I-992J-991D01*
G01X214200D01*
G03X213209Y-47309I1J-1402D01*
G01X203503Y-57015D01*
G02X202820Y-56732I-283J283D01*
G01Y-23975D01*
G02X203462Y-23657I400J0D01*
G03X205669Y-24399I2206J2909D01*
G03Y-17097I0J3651D01*
G03X203462Y-17839I-1J-3651D01*
G02X202820Y-17521I-242J318D01*
G01Y-15579D01*
X204274Y-14125D01*
X204395Y-14169D01*
G03X205669Y-14399I1275J3421D01*
G03X202018Y-10748I0J3651D01*
G03X202248Y-12022I3651J1D01*
G01X202292Y-12143D01*
X200669Y-13766D01*
X199046Y-12143D01*
X199090Y-12022D01*
G03X199320Y-10748I-3421J1275D01*
G03X195669Y-14399I-3651J0D01*
G03X196943Y-14169I-1J3651D01*
G01X197064Y-14125D01*
X198618Y-15679D01*
Y-17599D01*
G02X197966Y-17910I-400J0D01*
G03X195669Y-17097I-2297J-2838D01*
G03X192786Y-18508I0J-3651D01*
G02X192070Y-18262I-316J246D01*
G01Y-15748D01*
G03X191660Y-14757I-1401J1D01*
G01X189046Y-12143D01*
X189090Y-12022D01*
G03X189320Y-10748I-3421J1275D01*
G03X185669Y-14399I-3651J0D01*
G03X186943Y-14169I-1J3651D01*
G01X187064Y-14125D01*
X189268Y-16329D01*
Y-18262D01*
G02X188552Y-18508I-400J0D01*
G03X185669Y-17097I-2883J-2240D01*
G03X182018Y-20748I0J-3651D01*
G03X182248Y-22022I3651J1D01*
G01X182292Y-22143D01*
X174434Y-30000D01*
X147640D01*
G03X146649Y-30411I1J-1402D01*
G01X138859Y-38200D01*
X64767D01*
G03X63776Y-38611I1J-1402D01*
G01X53378Y-49009D01*
G03X52968Y-50000I991J-990D01*
G01Y-59525D01*
G02X52285Y-59808I-400J0D01*
G01X48996Y-56519D01*
Y-44744D01*
G03X45492I-1752J0D01*
G01Y-57244D01*
G03X46006Y-58482I1751J1D01*
G01X51262Y-63738D01*
G03X52500Y-64252I1239J1237D01*
G03X52555Y-64251I-4J1752D01*
G02X52968Y-64650I13J-400D01*
G01Y-80000D01*
G03X55770I1401J0D01*
G01Y-50581D01*
X65348Y-41004D01*
X139440D01*
G03X140431Y-40593I-1J1402D01*
G01X148221Y-32804D01*
X175015D01*
G03X176006Y-32393I-1J1402D01*
G01X184274Y-24125D01*
X184395Y-24169D01*
G03X185669Y-24399I1275J3421D01*
G03X188552Y-22988I0J3651D01*
G02X189268Y-23234I316J-246D01*
G01Y-138827D01*
G02X188564Y-139088I-400J-1D01*
G03X187500Y-138598I-1065J-912D01*
G01X177507D01*
G02X177224Y-137916I0J400D01*
G01X182010Y-133130D01*
G03X182420Y-132139I-991J990D01*
G01Y-77500D01*
G03X179618I-1401J0D01*
G01Y-131558D01*
X174438Y-136738D01*
X152440D01*
X145991Y-130289D01*
G03X145000Y-129878I-992J-991D01*
G01X116340D01*
X101520Y-115059D01*
Y-100000D01*
G03X100119Y-98598I-1402J0D01*
G01X52825D01*
X28235Y-74009D01*
G03X27244Y-73598I-992J-991D01*
G03X25842Y-75000I0J-1402D01*
G03X26253Y-75991I1402J1D01*
G01X51253Y-100991D01*
G03X52244Y-101402I992J991D01*
G01X77059D01*
G02X77428Y-101957I1J-400D01*
G03X77318Y-102500I1292J-544D01*
G03X78720Y-103902I1402J0D01*
G03X79287Y-103782I0J1402D01*
G01X79326Y-103764D01*
X90000D01*
G03X91402Y-102363I0J1402D01*
G03X91332Y-101926I-1402J0D01*
G02X91712Y-101402I380J124D01*
G01X98718D01*
Y-115640D01*
G03X99128Y-116631I1401J-1D01*
G01X114768Y-132271D01*
G03X115759Y-132682I992J991D01*
G01X144419D01*
X149654Y-137916D01*
G02X149371Y-138598I-283J-282D01*
G01X115581D01*
X95991Y-119009D01*
G03X95000Y-118598I-992J-991D01*
G03X93598Y-120000I0J-1402D01*
G03X94009Y-120991I1402J1D01*
G01X114009Y-140991D01*
G03X115000Y-141402I992J991D01*
G01X187500D01*
G03X188564Y-140912I-1J1402D01*
G02X189268Y-141173I304J-260D01*
G01Y-150073D01*
G02X188552Y-150319I-400J0D01*
G03X185669Y-148908I-2883J-2240D01*
G03X182018Y-152559I0J-3651D01*
G03X183715Y-155643I3651J0D01*
G02X183693Y-156331I-215J-337D01*
G03X183378Y-156568I677J-1227D01*
G01X179678Y-160268D01*
G03X179441Y-160583I990J-992D01*
G02X178753Y-160605I-351J193D01*
G03X175669Y-158908I-3084J-1954D01*
G03X172611Y-160564I0J-3651D01*
G02X171919Y-160526I-335J219D01*
G03X171660Y-160168I-1251J-632D01*
G01X168060Y-156568D01*
G03X167702Y-156309I-990J-992D01*
G02X167664Y-155617I181J357D01*
G03X169320Y-152559I-1995J3058D01*
G03X162018I-3651J0D01*
G03X163429Y-155442I3651J0D01*
G02X163183Y-156158I-246J-316D01*
G01X158155D01*
G02X157909Y-155442I0J400D01*
G03X159320Y-152559I-2240J2883D01*
G03X152018I-3651J0D01*
G03X153429Y-155442I3651J0D01*
G02X153183Y-156158I-246J-316D01*
G01X152451D01*
X152211Y-155918D01*
G03X151220Y-155508I-990J-991D01*
G01X148818D01*
G02X148507Y-154856I0J400D01*
G03X149320Y-152559I-2838J2297D01*
G03X142018I-3651J0D01*
G03X142831Y-154856I3651J0D01*
G02X142520Y-155508I-311J-252D01*
G01X138818D01*
G02X138507Y-154856I0J400D01*
G03X139320Y-152559I-2838J2297D01*
G03X132018I-3651J0D01*
G03X132831Y-154856I3651J0D01*
G02X132520Y-155508I-311J-252D01*
G01X128818D01*
G02X128507Y-154856I0J400D01*
G03X129320Y-152559I-2838J2297D01*
G03X122018I-3651J0D01*
G03X122831Y-154856I3651J0D01*
G02X122520Y-155508I-311J-252D01*
G01X118818D01*
G02X118507Y-154856I0J400D01*
G03X119320Y-152559I-2838J2297D01*
G03X112018I-3651J0D01*
G03X112831Y-154856I3651J0D01*
G02X112520Y-155508I-311J-252D01*
G01X108818D01*
G02X108507Y-154856I0J400D01*
G03X109320Y-152559I-2838J2297D01*
G03X102018I-3651J0D01*
G03X102831Y-154856I3651J0D01*
G02X102520Y-155508I-311J-252D01*
G01X98818D01*
G02X98507Y-154856I0J400D01*
G03X99320Y-152559I-2838J2297D01*
G03X92018I-3651J0D01*
G03X92831Y-154856I3651J0D01*
G02X92520Y-155508I-311J-252D01*
G01X88818D01*
G02X88507Y-154856I0J400D01*
G03X89320Y-152559I-2838J2297D01*
G03X85669Y-148908I-3651J0D01*
G03X82786Y-150319I0J-3651D01*
G02X82070Y-150073I-316J246D01*
G01Y-138169D01*
G03X81660Y-137178I-1401J1D01*
G01X78491Y-134009D01*
G03X77500Y-133598I-992J-991D01*
G03X76098Y-135000I0J-1402D01*
G03X76509Y-135991I1402J1D01*
G01X79268Y-138750D01*
Y-150073D01*
G02X78552Y-150319I-400J0D01*
G03X72786I-2883J-2240D01*
G02X72070Y-150073I-316J246D01*
G01Y-136801D01*
G02X72477Y-136401I400J0D01*
G03X72500Y-136402I72J1399D01*
G03X73491Y-135991I-1J1402D01*
G01X75399Y-134083D01*
G03X75810Y-133092I-991J992D01*
G01Y-125512D01*
G03X73006I-1402J0D01*
G01Y-132511D01*
X71428Y-134090D01*
X65991Y-128653D01*
G03X65000Y-128242I-992J-991D01*
G03X63598Y-129644I0J-1402D01*
G03X64009Y-130635I1402J1D01*
G01X69268Y-135894D01*
Y-150073D01*
G02X68552Y-150319I-400J0D01*
G03X65669Y-148908I-2883J-2240D01*
G03Y-156210I0J-3651D01*
G03X68750Y-154518I0J3651D01*
G02X69439Y-154541I338J-214D01*
G03X69678Y-154861I1231J670D01*
G01X73367Y-158550D01*
G03X73687Y-158789I990J992D01*
G02X73710Y-159478I-191J-351D01*
G03X72018Y-162559I1959J-3081D01*
G03X73362Y-165389I3652J0D01*
G02X73109Y-166098I-253J-309D01*
G01X68229D01*
G02X67976Y-165389I0J400D01*
G03X69320Y-162559I-2308J2830D01*
G03X62018I-3651J0D01*
G03X63362Y-165389I3652J0D01*
G02X63109Y-166098I-253J-309D01*
G01X58229D01*
G02X57976Y-165389I0J400D01*
G03X59320Y-162559I-2308J2830D01*
G03X52018I-3651J0D01*
G03X52413Y-164210I3651J1D01*
G01X52478Y-164339D01*
X52234Y-164583D01*
X51660Y-164009D01*
G03X50669Y-163598I-992J-991D01*
G03X49268Y-165000I0J-1401D01*
G03X49678Y-165991I1401J-1D01*
G01X52178Y-168491D01*
G03X53169Y-168902I992J991D01*
G01X147500D01*
G03X148445Y-168535I-1J1402D01*
G02X149114Y-168830I269J-296D01*
G01Y-175516D01*
G03X149525Y-176507I1402J1D01*
G01X151623Y-178605D01*
X151579Y-178726D01*
G03X151349Y-180000I3421J-1275D01*
G03X151963Y-182027I3651J-1D01*
G02X151630Y-182648I-333J-221D01*
G01X148370D01*
G02X148037Y-182027I0J400D01*
G03X148651Y-180000I-3037J2026D01*
G03X145000Y-176349I-3651J0D01*
G03X143726Y-176579I1J-3651D01*
G01X143605Y-176623D01*
X140991Y-174009D01*
G03X140000Y-173598I-992J-991D01*
G01X52720D01*
X45971Y-166850D01*
G02X46196Y-166172I283J282D01*
G03X49320Y-162559I-527J3613D01*
G03X45669Y-158908I-3651J0D01*
G03X42786Y-160319I0J-3651D01*
G02X42070Y-160073I-316J246D01*
G01Y-155045D01*
G02X42786Y-154799I400J0D01*
G03X45669Y-156210I2883J2240D01*
G03Y-148908I0J3651D01*
G03X42786Y-150319I0J-3651D01*
G02X42070Y-150073I-316J246D01*
G01Y-130669D01*
G03X41660Y-129678I-1401J1D01*
G01X38491Y-126509D01*
G03X37500Y-126098I-992J-991D01*
G03X36098Y-127500I0J-1402D01*
G03X36509Y-128491I1402J1D01*
G01X39268Y-131250D01*
Y-150073D01*
G02X38552Y-150319I-400J0D01*
G03X35669Y-148908I-2883J-2240D01*
G03X33372Y-149721I0J-3651D01*
G02X32720Y-149410I-252J311D01*
G01Y-126762D01*
X38491Y-120991D01*
G03X38902Y-120000I-991J992D01*
G01Y-117188D01*
G03X38491Y-116197I-1402J-1D01*
G01X33491Y-111197D01*
G03X32500Y-110786I-992J-991D01*
G03X31098Y-112188I0J-1402D01*
G03X31509Y-113179I1402J1D01*
G01X36098Y-117769D01*
Y-119419D01*
X32089Y-123429D01*
G02X31406Y-123146I-283J283D01*
G01Y-117934D01*
G03X30996Y-116943I-1401J1D01*
G01X23550Y-109497D01*
G03X22559Y-109086I-992J-991D01*
G03X21158Y-110488I0J-1401D01*
G03X21568Y-111479I1401J-1D01*
G01X28604Y-118515D01*
Y-149399D01*
G02X27953Y-149711I-400J0D01*
G03X25669Y-148908I-2284J-2847D01*
G03Y-156210I0J-3651D01*
G03X27953Y-155407I0J3650D01*
G02X28604Y-155719I251J-312D01*
G01Y-159399D01*
G02X27953Y-159711I-400J0D01*
G03X25669Y-158908I-2284J-2847D01*
G03X23327Y-159758I0J-3651D01*
G02X22670Y-159451I-257J307D01*
G01Y-157559D01*
G03X22084Y-156144I-2001J0D01*
G01X19245Y-153304D01*
X19263Y-153201D01*
G03X19320Y-152559I-3594J643D01*
G03X15669Y-148908I-3651J0D01*
G03X12786Y-150319I0J-3651D01*
G02X12070Y-150073I-316J246D01*
G01Y-135105D01*
X18432Y-128743D01*
G03X18842Y-127752I-991J990D01*
G03X17441Y-126350I-1402J0D01*
G03X16450Y-126761I1J-1402D01*
G01X9678Y-133533D01*
G03X9268Y-134524I991J-990D01*
G01Y-150073D01*
G02X8552Y-150319I-400J0D01*
G03X5669Y-148908I-2883J-2240D01*
G03X2723Y-150403I0J-3650D01*
G02X2000Y-150167I-323J236D01*
G01Y-23140D01*
G02X2723Y-22904I400J0D01*
G03X5669Y-24399I2946J2155D01*
G03Y-17097I0J3651D01*
G03X2723Y-18592I0J-3650D01*
G02X2000Y-18356I-323J236D01*
G01Y-13140D01*
G02X2723Y-12904I400J0D01*
G03X5669Y-14399I2946J2155D01*
G03Y-7097I0J3651D01*
G03X2723Y-8592I0J-3650D01*
G02X2000Y-8356I-323J236D01*
G01Y-2000D01*
G37*
G36*
G01X127486Y-176402D02*
X132514D01*
G02X132760Y-177117I0J-400D01*
G03X131349Y-180000I2240J-2883D01*
G03X131963Y-182027I3651J-1D01*
G02X131630Y-182648I-333J-221D01*
G01X128370D01*
G02X128037Y-182027I0J400D01*
G03X128651Y-180000I-3037J2026D01*
G03X127240Y-177117I-3651J0D01*
G02X127486Y-176402I246J315D01*
G37*
G36*
G01X137486D02*
X139419D01*
X141623Y-178605D01*
X141579Y-178726D01*
G03X141349Y-180000I3421J-1275D01*
G03X141963Y-182027I3651J-1D01*
G02X141630Y-182648I-333J-221D01*
G01X138370D01*
G02X138037Y-182027I0J400D01*
G03X138651Y-180000I-3037J2026D01*
G03X137240Y-177117I-3651J0D01*
G02X137486Y-176402I246J315D01*
G37*
%LPC*%
G75*
G36*
G01X244328Y-36402D02*
X239369D01*
G02Y-33598I0J1402D01*
G01X244909D01*
G02X245900Y-34009I-1J-1402D01*
G01X248491Y-36600D01*
G02X248902Y-37591I-991J-992D01*
G02X247500Y-38992I-1402J1D01*
G02X246509Y-38582I-1J1401D01*
G01X244328Y-36402D01*
G37*
G36*
G01X104009Y-63491D02*
X101509Y-60991D01*
G02X101098Y-60000I991J992D01*
G02X102500Y-58598I1402J0D01*
G02X103491Y-59009I-1J-1402D01*
G01X105581Y-61098D01*
X117500D01*
G02Y-63902I0J-1402D01*
G01X105000D01*
G02X104009Y-63491I1J1402D01*
G37*
G36*
G01X272435Y-90065D02*
X268361Y-85991D01*
G02X267950Y-85000I991J992D01*
G02X269352Y-83598I1402J0D01*
G02X270343Y-84009I-1J-1402D01*
G01X274417Y-88083D01*
G02X274828Y-89074I-991J-992D01*
G02X273426Y-90476I-1402J0D01*
G02X272435Y-90065I1J1402D01*
G37*
G36*
G01X110140Y-88598D02*
X126919D01*
X129009Y-86509D01*
G02X130000Y-86098I992J-991D01*
G02X131402Y-87500I0J-1402D01*
G02X130991Y-88491I-1402J1D01*
G01X128491Y-90991D01*
G02X127500Y-91402I-992J991D01*
G01X110140D01*
G02Y-88598I0J1402D01*
G37*
G36*
G01X108438Y-108207D02*
G02X108849Y-107216I1402J-1D01*
G01X112056Y-104009D01*
G02X113047Y-103598I992J-991D01*
G02X114448Y-105000I-1J-1402D01*
G02X114038Y-105991I-1401J-1D01*
G01X111242Y-108788D01*
Y-120000D01*
G02X108438I-1402J0D01*
G01Y-108207D01*
G37*
G36*
G01X86737Y-107590D02*
X20000D01*
G02Y-104786I0J1402D01*
G01X87318D01*
G02X88309Y-105197I-1J-1402D01*
G01X92121Y-109009D01*
G02X92532Y-110000I-991J-992D01*
G02X91130Y-111402I-1402J0D01*
G02X90139Y-110991I1J1402D01*
G01X86737Y-107590D01*
G37*
G36*
G01X3590Y-98090D02*
G02X3180Y-97099I991J990D01*
G01Y-77500D01*
G02X5982I1401J0D01*
G01Y-96518D01*
X23550Y-114086D01*
G02X23960Y-115077I-991J-990D01*
G02X22559Y-116478I-1401J0D01*
G02X21568Y-116068I-1J1401D01*
G01X3590Y-98090D01*
G37*
G36*
G01X227500Y-138598D02*
X231919D01*
X239009Y-131509D01*
G02X240000Y-131098I992J-991D01*
G02X241402Y-132500I0J-1402D01*
G02X240991Y-133491I-1402J1D01*
G01X233491Y-140991D01*
G02X232500Y-141402I-992J991D01*
G01X227500D01*
G02Y-138598I0J1402D01*
G37*
G36*
G01X163762Y-119853D02*
G02X163248Y-118615I1237J1239D01*
G01Y-87500D01*
G02X166752I1752J0D01*
G01Y-95733D01*
G03X167229Y-96125I400J0D01*
G02X167500Y-96098I274J-1375D01*
G01X177500D01*
G02Y-98902I0J-1402D01*
G01X167500D01*
G02X167229Y-98875I3J1402D01*
G03X166752Y-99267I-77J-392D01*
G01Y-117890D01*
X171930Y-123069D01*
G02X172444Y-124307I-1237J-1239D01*
G02X170692Y-126058I-1752J1D01*
G02X169454Y-125545I0J1750D01*
G01X163762Y-119853D01*
G37*
G36*
G01X83598Y-58081D02*
X71509Y-45991D01*
G02X71098Y-45000I991J992D01*
G02X72500Y-43598I1402J0D01*
G02X73491Y-44009I-1J-1402D01*
G01X85991Y-56509D01*
G02X86402Y-57500I-991J-992D01*
G01Y-70000D01*
G02X83598I-1402J0D01*
G01Y-58081D01*
G37*
G36*
G01X165353Y-39009D02*
G02X166344Y-38598I992J-991D01*
G01X179840D01*
G02Y-41402I0J-1402D01*
G01X166925D01*
X166584Y-41742D01*
G03X166700Y-42389I282J-283D01*
G02X167107Y-42672I-584J-1274D01*
G01X169907Y-45472D01*
G02X170318Y-46463I-991J-992D01*
G01Y-66085D01*
G02X169907Y-67076I-1402J1D01*
G01X168492Y-68491D01*
G02X167501Y-68902I-992J991D01*
G02X166502Y-68483I1J1402D01*
G03X165818Y-68764I-284J-281D01*
G01Y-80584D01*
G02X165407Y-81575I-1402J1D01*
G01X163491Y-83491D01*
G02X162500Y-83902I-992J991D01*
G02X161688Y-83642I1J1402D01*
G03X161056Y-83968I-232J-326D01*
G01Y-119074D01*
X171240Y-129258D01*
X176098Y-124399D01*
Y-112500D01*
G02X178902I1402J0D01*
G01Y-124980D01*
G02X178491Y-125971I-1402J1D01*
G01X170491Y-133971D01*
G02X169500Y-134382I-992J991D01*
G01X155479D01*
G02X154488Y-133971I1J1402D01*
G01X140289Y-119772D01*
G02X139878Y-118781I991J992D01*
G01Y-67492D01*
X133788Y-61402D01*
X126832D01*
G03X126549Y-62084I0J-400D01*
G01X128738Y-64274D01*
G02X129252Y-65512I-1237J-1239D01*
G01Y-72500D01*
G02X125748I-1752J0D01*
G01Y-66237D01*
X106006Y-46494D01*
G02X105492Y-45256I1237J1239D01*
G02X107244Y-43504I1752J0D01*
G02X108482Y-44018I-1J-1751D01*
G01X123459Y-58994D01*
G03X124021Y-58997I283J283D01*
G02X125000Y-58598I980J-1003D01*
G01X134369D01*
G02X135360Y-59009I-1J-1402D01*
G01X142271Y-65920D01*
G02X142682Y-66911I-991J-992D01*
G01Y-118200D01*
X156060Y-131578D01*
X168919D01*
X169263Y-131235D01*
X169115Y-131087D01*
X169108Y-131081D01*
G02X169009Y-130991I892J1081D01*
G01X158664Y-120646D01*
G02X158254Y-119655I991J990D01*
G01Y-52689D01*
G03X157571Y-52406I-400J0D01*
G01X154586Y-55391D01*
Y-125103D01*
X155991Y-126509D01*
G02X156402Y-127500I-991J-992D01*
G02X155000Y-128902I-1402J0D01*
G02X154009Y-128491I1J1402D01*
G01X152193Y-126675D01*
G02X151782Y-125684I991J992D01*
G01Y-56068D01*
X129316D01*
G02X128078Y-55554I1J1751D01*
G01X118762Y-46238D01*
G02X118248Y-45000I1237J1239D01*
G02X120000Y-43248I1752J0D01*
G02X121238Y-43762I-1J-1751D01*
G01X130041Y-52564D01*
X152459D01*
X156262Y-48762D01*
G02X157500Y-48248I1239J-1237D01*
G02X157788Y-48272I-1J-1752D01*
G03X158254Y-47878I66J395D01*
G01Y-42736D01*
X156509Y-40991D01*
G02X156098Y-40000I991J992D01*
G02X157500Y-38598I1402J0D01*
G02X158491Y-39009I-1J-1402D01*
G01X160646Y-41164D01*
G02X161056Y-42155I-991J-990D01*
G01Y-43649D01*
G03X161447Y-44049I400J0D01*
G02X162348Y-44404I-32J-1401D01*
G03X163014Y-44105I266J299D01*
G01Y-41928D01*
G02X163425Y-40937I1402J-1D01*
G01X165353Y-39009D01*
G37*
G54D15*
X55669Y-152559D03*
X175669D03*
X195669Y-162559D03*
X215669Y-152559D03*
Y-162559D03*
X205669Y-152559D03*
Y-162559D03*
X246063Y-152559D03*
Y-162559D03*
X235669Y-152559D03*
Y-162559D03*
X225669Y-152559D03*
Y-162559D03*
X265669Y-152559D03*
Y-162559D03*
X255669Y-152559D03*
Y-162559D03*
X275669Y-152559D03*
Y-162559D03*
X35669Y-20748D03*
X25669D03*
X15669D03*
X55669D03*
X45669D03*
X75669D03*
X65669D03*
X105669D03*
X95669D03*
X85669D03*
X125669D03*
X115669D03*
X145669D03*
X135669D03*
X175669D03*
X165669D03*
X155669D03*
X215669D03*
X246063D03*
X235669D03*
X225669D03*
X265669D03*
X255669D03*
X275669D03*
X35669Y-10748D03*
X25669D03*
X15669D03*
X55669D03*
X45669D03*
X75669D03*
X65669D03*
X105669D03*
X95669D03*
X85669D03*
X125669D03*
X115669D03*
X145669D03*
X135669D03*
X175669D03*
X165669D03*
X155669D03*
X215669D03*
X246063D03*
X235669D03*
X225669D03*
X265669D03*
X255669D03*
X275669D03*
%LPD*%
G75*
G54D10*
X5669Y-152559D03*
Y-162559D03*
Y-20748D03*
Y-10748D03*
X35669Y-152559D03*
Y-162559D03*
X25669Y-152559D03*
Y-162559D03*
X15669Y-152559D03*
Y-162559D03*
X35669Y-20748D03*
X25669D03*
X15669D03*
X35669Y-10748D03*
X25669D03*
X15669D03*
X55669Y-152559D03*
Y-162559D03*
X45669Y-152559D03*
Y-162559D03*
X55669Y-20748D03*
X45669D03*
X55669Y-10748D03*
X45669D03*
X75669Y-152559D03*
Y-162559D03*
X65669Y-152559D03*
Y-162559D03*
X75669Y-20748D03*
X65669D03*
X75669Y-10748D03*
X65669D03*
X105000Y-180000D03*
X105669Y-152559D03*
Y-162559D03*
X95669Y-152559D03*
Y-162559D03*
X85669Y-152559D03*
Y-162559D03*
X105669Y-20748D03*
X95669D03*
X85669D03*
X105669Y-10748D03*
X95669D03*
X85669D03*
X115000Y-180000D03*
X125000D03*
X125669Y-152559D03*
Y-162559D03*
X115669Y-152559D03*
Y-162559D03*
X125669Y-20748D03*
X115669D03*
X125669Y-10748D03*
X115669D03*
X135000Y-180000D03*
X145000D03*
X145669Y-152559D03*
Y-162559D03*
X135669Y-152559D03*
Y-162559D03*
X145669Y-20748D03*
X135669D03*
X145669Y-10748D03*
X135669D03*
X155000Y-180000D03*
X165000D03*
X175000D03*
X175669Y-152559D03*
Y-162559D03*
X165669Y-152559D03*
Y-162559D03*
X155669Y-152559D03*
Y-162559D03*
X175669Y-20748D03*
X165669D03*
X155669D03*
X175669Y-10748D03*
X165669D03*
X155669D03*
X195669Y-152559D03*
Y-162559D03*
X185669Y-152559D03*
Y-162559D03*
X195669Y-20748D03*
X185669D03*
X195669Y-10748D03*
X185669D03*
X215669Y-152559D03*
Y-162559D03*
X205669Y-152559D03*
Y-162559D03*
X215669Y-20748D03*
X205669D03*
X215669Y-10748D03*
X205669D03*
X246063Y-152559D03*
Y-162559D03*
X235669Y-152559D03*
Y-162559D03*
X225669Y-152559D03*
Y-162559D03*
X246063Y-20748D03*
X235669D03*
X225669D03*
X246063Y-10748D03*
X235669D03*
X225669D03*
X265669Y-152559D03*
Y-162559D03*
X255669Y-152559D03*
Y-162559D03*
X265669Y-20748D03*
X255669D03*
X265669Y-10748D03*
X255669D03*
X285669Y-152559D03*
Y-162559D03*
X275669Y-152559D03*
Y-162559D03*
X285669Y-20748D03*
X275669D03*
X285669Y-10748D03*
X275669D03*
G54D11*
X4581Y-77500D03*
X31360Y-186900D03*
X20000Y-180000D03*
X31705Y-172500D03*
X17441Y-127752D03*
X22559Y-115077D03*
X32500Y-112188D03*
X22559Y-110488D03*
X20000Y-106188D03*
X17500Y-70000D03*
X27244Y-75000D03*
X50669Y-165000D03*
X37500Y-127500D03*
Y-120000D03*
X52500Y-62500D03*
X54369Y-80000D03*
X38719Y-70000D03*
X45000Y-77500D03*
X42500Y-67500D03*
X35000Y-65000D03*
X37500Y-77500D03*
X47244Y-44744D03*
X38719Y-42500D03*
X52500Y-30000D03*
X77500Y-135000D03*
X72500D03*
X65000Y-129644D03*
X74408Y-125512D03*
X78720Y-102500D03*
X60000Y-37328D03*
X72500Y-45000D03*
X85881Y-180000D03*
X91130Y-110000D03*
X95000Y-120000D03*
X100119Y-100000D03*
X90000Y-102363D03*
X85000Y-70000D03*
X102500Y-60000D03*
X85000D03*
X109840Y-120000D03*
X113047Y-105000D03*
X110140Y-90000D03*
X117500Y-75000D03*
Y-62500D03*
X107244Y-45256D03*
X117500Y-42372D03*
X122500Y-55000D03*
X125000Y-60000D03*
X120000Y-45000D03*
X147500Y-167500D03*
X145000Y-131280D03*
X143839Y-125000D03*
X130000Y-87500D03*
X143839Y-102500D03*
X141280D03*
X127500Y-72500D03*
X147238Y-70000D03*
X137500Y-75000D03*
X139440Y-39602D03*
X134369Y-60000D03*
X151419Y-133839D03*
X170000Y-130000D03*
X170692Y-124307D03*
X155000Y-127500D03*
X165000Y-87500D03*
X167500Y-97500D03*
X167501Y-67500D03*
X162500Y-82500D03*
X161416Y-55479D03*
Y-45450D03*
X166116Y-43663D03*
X157500Y-40000D03*
Y-50000D03*
X187500Y-140000D03*
X177500Y-112500D03*
Y-97500D03*
X196838Y-69999D03*
X181019Y-77500D03*
X194737Y-67500D03*
X179840Y-40000D03*
X192610Y-32391D03*
X220000Y-132500D03*
X212500Y-135000D03*
X220000Y-90000D03*
X202500Y-72500D03*
X212500Y-75000D03*
X220000Y-67500D03*
X198938Y-72500D03*
X215000Y-52500D03*
X199719Y-52550D03*
Y-37500D03*
X197500Y-42500D03*
X227500Y-140000D03*
X240000Y-132500D03*
X227500Y-105000D03*
X222756Y-75000D03*
X227500Y-52500D03*
X242500D03*
X227619Y-48300D03*
X241254Y-50000D03*
X239369Y-35000D03*
X245000Y-126260D03*
X247500Y-37591D03*
X272500Y-117500D03*
X269352Y-85000D03*
X273426Y-89074D03*
X274788Y-50000D03*
G54D12*
G01X5669Y-14600D02*
Y-10748D01*
G01D02*
Y-6896D01*
G01Y-10748D02*
X9521D01*
G01X20000Y-180000D02*
X20669Y-179331D01*
Y-157559D01*
X15669Y-152559D01*
G01X131148Y-180000D02*
X135000D01*
G01D02*
X138852D01*
G54D13*
G01X52500Y-62500D02*
X47244Y-57244D01*
Y-44744D01*
G01X127500Y-72500D02*
Y-65512D01*
X107244Y-45256D01*
G01X120000Y-45000D02*
X129316Y-54316D01*
X153184D01*
G01X170692Y-124307D02*
X165000Y-118615D01*
Y-87500D01*
G01X153184Y-54316D02*
X157500Y-50000D01*
G01X212500Y-75000D02*
X205000D01*
X202500Y-72500D01*
G01X227500Y-52500D02*
X242500D01*
G54D14*
G01X4581Y-77500D02*
Y-97099D01*
X22559Y-115077D01*
G01X5669Y-10748D02*
X1619Y-14798D01*
Y-24798D01*
X11821Y-35000D01*
G01X31360Y-186900D02*
X16555D01*
X10669Y-181014D01*
Y-134524D01*
X17441Y-127752D01*
G01X85881Y-181700D02*
X31700D01*
X30005Y-180005D01*
Y-117934D01*
X22559Y-110488D01*
G01X37500Y-120000D02*
X31319Y-126181D01*
Y-172114D01*
X31705Y-172500D01*
G01X32500Y-112188D02*
X37500Y-117188D01*
Y-120000D01*
G01X91130Y-110000D02*
X87318Y-106188D01*
X20000D01*
G01X27244Y-75000D02*
X52244Y-100000D01*
X100119D01*
G01X11821Y-35000D02*
X36219D01*
X38719Y-37500D01*
G01X145000Y-180000D02*
X140000Y-175000D01*
X52139D01*
X40669Y-163530D01*
Y-130669D01*
X37500Y-127500D01*
G01X147500Y-167500D02*
X53169D01*
X50669Y-165000D01*
G01X139440Y-39602D02*
X64767D01*
X54369Y-50000D01*
Y-80000D01*
G01X38719Y-70000D02*
Y-42500D01*
G01D02*
Y-37500D01*
G01D02*
X38891Y-37328D01*
X60000D01*
G01X155000Y-180000D02*
X150516Y-175516D01*
Y-161509D01*
X147216Y-158209D01*
X80118D01*
X79468Y-157559D01*
X74358D01*
X70669Y-153870D01*
Y-135313D01*
X65000Y-129644D01*
G01X77500Y-135000D02*
X80669Y-138169D01*
Y-153658D01*
X83920Y-156909D01*
X151220D01*
X151870Y-157559D01*
X167069D01*
X170669Y-161159D01*
Y-175669D01*
X175000Y-180000D01*
G01X74408Y-125512D02*
Y-133092D01*
X72500Y-135000D01*
G01X78720Y-102500D02*
X78857Y-102363D01*
X90000D01*
G01X85000Y-60000D02*
Y-57500D01*
X72500Y-45000D01*
G01X185669Y-162559D02*
Y-177350D01*
X177669Y-185350D01*
X89531D01*
X85881Y-181700D01*
G01D02*
Y-180000D01*
G01X145000Y-131280D02*
X115759D01*
X100119Y-115640D01*
Y-100000D01*
G01X187500Y-140000D02*
X115000D01*
X95000Y-120000D01*
G01X85000Y-60000D02*
Y-70000D01*
G01X117500Y-62500D02*
X105000D01*
X102500Y-60000D01*
G01X185669Y-10748D02*
X190669Y-15748D01*
Y-154259D01*
X187369Y-157559D01*
X184369D01*
X180669Y-161259D01*
Y-180400D01*
X177019Y-184050D01*
X119050D01*
X115000Y-180000D01*
G01X113047Y-105000D02*
X109840Y-108207D01*
Y-120000D01*
G01X130000Y-87500D02*
X127500Y-90000D01*
X110140D01*
G01X117500Y-75000D02*
X137500D01*
G01X122500Y-55000D02*
X117500Y-50000D01*
Y-42372D01*
G01X125000Y-60000D02*
X134369D01*
G01X143839Y-125000D02*
Y-126259D01*
X151419Y-133839D01*
G01X181019Y-77500D02*
Y-132139D01*
X175019Y-138139D01*
X151859D01*
X145000Y-131280D01*
G01X141280Y-102500D02*
Y-118781D01*
X155479Y-132980D01*
X169500D01*
X177500Y-124980D01*
Y-112500D01*
G01X143839Y-102500D02*
Y-73399D01*
X147238Y-70000D01*
G01X134369Y-60000D02*
X141280Y-66911D01*
Y-102500D01*
G01X185669Y-20748D02*
X175015Y-31402D01*
X147640D01*
X139440Y-39602D01*
G01X170000Y-130000D02*
X159655Y-119655D01*
Y-42155D01*
X157500Y-40000D01*
G01X155000Y-127500D02*
X153184Y-125684D01*
Y-54316D01*
G01X167500Y-97500D02*
X177500D01*
G01X167501Y-67500D02*
X168916Y-66085D01*
Y-46463D01*
X166116Y-43663D01*
G01X162500Y-82500D02*
X164416Y-80584D01*
Y-41928D01*
X166344Y-40000D01*
X179840D01*
G01X161416Y-55479D02*
Y-45450D01*
G01X205669Y-10748D02*
X201419Y-14998D01*
Y-65418D01*
X196838Y-69999D01*
G01X245000Y-126260D02*
X194737Y-75997D01*
Y-67500D01*
G01X192610Y-32391D02*
X194737Y-34518D01*
Y-67500D01*
G01X195669Y-20748D02*
X197500Y-22579D01*
Y-42500D01*
G01X199719Y-37500D02*
Y-24497D01*
X200019Y-24197D01*
Y-15098D01*
X195669Y-10748D01*
G01X215000Y-52500D02*
Y-85000D01*
X220000Y-90000D01*
G01Y-67500D02*
Y-72244D01*
X222756Y-75000D01*
G01X227619Y-48300D02*
X214200D01*
X202719Y-59781D01*
Y-68719D01*
X198938Y-72500D01*
G01X199719Y-52550D02*
Y-37500D01*
G01X227500Y-140000D02*
X232500D01*
X240000Y-132500D01*
G01X272500Y-117500D02*
X240000D01*
X227500Y-105000D01*
G01X274788Y-50000D02*
X272288Y-52500D01*
X242500D01*
G01X227619Y-48300D02*
X239554D01*
X241254Y-50000D01*
G01X239369Y-35000D02*
X244909D01*
X247500Y-37591D01*
G01X269352Y-85000D02*
X273426Y-89074D01*
M02*
