G04 ================== begin FILE IDENTIFICATION RECORD ==================*
G04 Layout Name:  D:/Cadence/Cadence_folder/base_02_PCB/my_pcb01.brd*
G04 Film Name:    SOLDTOP*
G04 File Format:  Gerber RS274X*
G04 File Origin:  Cadence Allegro 23.1-P001*
G04 Origin Date:  Wed Apr 22 11:28:50 2026*
G04 *
G04 Layer:  VIA CLASS/SOLDERMASK_TOP*
G04 Layer:  PIN/SOLDERMASK_TOP*
G04 Layer:  PACKAGE GEOMETRY/SOLDERMASK_TOP*
G04 Layer:  BOARD GEOMETRY/SOLDERMASK_TOP*
G04 Layer:  BOARD GEOMETRY/DESIGN_OUTLINE*
G04 *
G04 Offset:    (0.00 0.00)*
G04 Mirror:    No*
G04 Mode:      Positive*
G04 Rotation:  0*
G04 FullContactRelief:  No*
G04 UndefLineWidth:     0.00*
G04 ================== end FILE IDENTIFICATION RECORD ====================*
%FSLAX55Y55*MOIN*%
%IR0*IPPOS*OFA0.00000B0.00000*MIA0B0*SFA1.00000B1.00000*%
%ADD17C,.04331*%
%ADD10C,.0689*%
%ADD12R,.02622X.0252*%
%ADD21R,.0515X.07091*%
%ADD23R,.03543X.03543*%
%ADD20R,.04724X.02362*%
%ADD16R,.01181X.02953*%
%ADD11R,.03543X.03937*%
%ADD15R,.06299X.05512*%
%ADD22R,.06417X.05496*%
%ADD14R,.03567X.03795*%
%ADD19R,.05894X.01795*%
%ADD13R,.01969X.07087*%
%ADD18R,.01795X.05894*%
%LPD*%
G75*
G54D10*
X5669Y-152559D03*
Y-162559D03*
Y-20748D03*
Y-10748D03*
X35669Y-152559D03*
Y-162559D03*
X25669Y-152559D03*
Y-162559D03*
X15669Y-152559D03*
Y-162559D03*
X35669Y-20748D03*
X25669D03*
X15669D03*
X35669Y-10748D03*
X25669D03*
X15669D03*
X55669Y-152559D03*
Y-162559D03*
X45669Y-152559D03*
Y-162559D03*
X55669Y-20748D03*
X45669D03*
X55669Y-10748D03*
X45669D03*
X75669Y-152559D03*
Y-162559D03*
X65669Y-152559D03*
Y-162559D03*
X75669Y-20748D03*
X65669D03*
X75669Y-10748D03*
X65669D03*
X105000Y-180000D03*
X105669Y-152559D03*
Y-162559D03*
X95669Y-152559D03*
Y-162559D03*
X85669Y-152559D03*
Y-162559D03*
X105669Y-20748D03*
X95669D03*
X85669D03*
X105669Y-10748D03*
X95669D03*
X85669D03*
X115000Y-180000D03*
X125000D03*
X125669Y-152559D03*
Y-162559D03*
X115669Y-152559D03*
Y-162559D03*
X125669Y-20748D03*
X115669D03*
X125669Y-10748D03*
X115669D03*
X135000Y-180000D03*
X145000D03*
X145669Y-152559D03*
Y-162559D03*
X135669Y-152559D03*
Y-162559D03*
X145669Y-20748D03*
X135669D03*
X145669Y-10748D03*
X135669D03*
X155000Y-180000D03*
X165000D03*
X175000D03*
X175669Y-152559D03*
Y-162559D03*
X165669Y-152559D03*
Y-162559D03*
X155669Y-152559D03*
Y-162559D03*
X175669Y-20748D03*
X165669D03*
X155669D03*
X175669Y-10748D03*
X165669D03*
X155669D03*
X195669Y-152559D03*
Y-162559D03*
X185669Y-152559D03*
Y-162559D03*
X195669Y-20748D03*
X185669D03*
X195669Y-10748D03*
X185669D03*
X215669Y-152559D03*
Y-162559D03*
X205669Y-152559D03*
Y-162559D03*
X215669Y-20748D03*
X205669D03*
X215669Y-10748D03*
X205669D03*
X246063Y-152559D03*
Y-162559D03*
X235669Y-152559D03*
Y-162559D03*
X225669Y-152559D03*
Y-162559D03*
X246063Y-20748D03*
X235669D03*
X225669D03*
X246063Y-10748D03*
X235669D03*
X225669D03*
X265669Y-152559D03*
Y-162559D03*
X255669Y-152559D03*
Y-162559D03*
X265669Y-20748D03*
X255669D03*
X265669Y-10748D03*
X255669D03*
X285669Y-152559D03*
Y-162559D03*
X275669Y-152559D03*
Y-162559D03*
X285669Y-20748D03*
X275669D03*
X285669Y-10748D03*
X275669D03*
G54D11*
X7244Y-60000D03*
Y-50000D03*
Y-40000D03*
X32756Y-70000D03*
X27244D03*
X12756Y-60000D03*
Y-50000D03*
Y-40000D03*
X52756Y-110000D03*
X47244D03*
X52756Y-120000D03*
X47244D03*
X57244Y-80000D03*
Y-70000D03*
X52756Y-40000D03*
X47244D03*
X62756Y-80000D03*
Y-70000D03*
X92756Y-40000D03*
X87244D03*
X112756D03*
X107244D03*
X142756Y-70000D03*
X137244D03*
X142756Y-60000D03*
X137244D03*
X142756Y-50000D03*
X137244D03*
X192756Y-180000D03*
X187244D03*
X197244Y-60000D03*
X212756Y-180000D03*
X207244D03*
X202756Y-60000D03*
X217244Y-80000D03*
X232756Y-180000D03*
X227244D03*
X222756Y-80000D03*
X242756Y-40000D03*
X237244D03*
X252756Y-180000D03*
X247244D03*
X267244D03*
X262756Y-50000D03*
X257244D03*
X262756Y-40000D03*
X257244D03*
X272756Y-180000D03*
X282756Y-130000D03*
X277244D03*
X282756Y-120000D03*
X277244D03*
X282756Y-110000D03*
X277244D03*
G54D20*
X175118Y-63740D03*
X164882D03*
X175118Y-56260D03*
X164882Y-60000D03*
Y-56260D03*
X265118Y-133740D03*
X254882D03*
X265118Y-126260D03*
X254882Y-130000D03*
Y-126260D03*
G54D21*
X195876Y-100000D03*
X184124D03*
X235876Y-60000D03*
X224124D03*
G54D12*
X8295Y-70000D03*
X31705Y-180000D03*
X28295D03*
X11705Y-70000D03*
X51705Y-180000D03*
X48295D03*
X78295Y-100000D03*
X71705Y-60000D03*
X68295D03*
X91705Y-180000D03*
X88295D03*
X81705Y-100000D03*
X111705Y-110000D03*
X108295D03*
X191705Y-70000D03*
X188295D03*
X218295Y-50000D03*
Y-40000D03*
X221705Y-50000D03*
Y-40000D03*
G54D13*
X27677Y-121024D03*
X25118D03*
X22559D03*
X20000D03*
X17441D03*
X14882D03*
X12323D03*
Y-98976D03*
X14882D03*
X17441D03*
X20000D03*
X22559D03*
X25118D03*
X27677D03*
G54D22*
X243976Y-100000D03*
X256024D03*
X263976Y-70000D03*
X276024D03*
G54D14*
X33047Y-50000D03*
X26953D03*
X73047Y-180000D03*
X66953D03*
X73047Y-40000D03*
X66953D03*
X113047Y-120000D03*
X106953D03*
X113047Y-90000D03*
X106953D03*
X113047Y-70000D03*
X106953D03*
X113047Y-80000D03*
X106953D03*
X143047Y-40000D03*
X136953D03*
X196953Y-130000D03*
Y-120000D03*
X183047Y-40000D03*
X176953D03*
X203047Y-130000D03*
Y-120000D03*
X263047Y-110000D03*
X256953D03*
X266953Y-80000D03*
X273047D03*
X283047Y-40000D03*
X276953D03*
G54D23*
X282949Y-100000D03*
X277051D03*
G54D15*
X80000Y-120000D03*
G54D16*
X78720Y-125512D03*
X76161D03*
Y-114488D03*
X78720D03*
X83839Y-125512D03*
X81280D03*
Y-114488D03*
X83839D03*
G54D17*
X110000Y-100000D03*
X220000Y-110000D03*
Y-100000D03*
X240000Y-80000D03*
X280000Y-50000D03*
G54D18*
X143839Y-109055D03*
X141280D03*
X138720D03*
X136161D03*
Y-90945D03*
X138720D03*
X141280D03*
X143839D03*
G54D19*
X160945Y-133839D03*
Y-131280D03*
Y-128720D03*
Y-126161D03*
X179055Y-131280D03*
Y-133839D03*
Y-126161D03*
Y-128720D03*
M02*
