G04 ================== begin FILE IDENTIFICATION RECORD ==================*
G04 Layout Name:  D:/Cadence/Cadence_folder/base_02_PCB/my_pcb01.brd*
G04 Film Name:    TOP*
G04 File Format:  Gerber RS274X*
G04 File Origin:  Cadence Allegro 23.1-P001*
G04 Origin Date:  Wed Apr 22 15:01:49 2026*
G04 *
G04 Layer:  ETCH/TOP*
G04 Layer:  PIN/TOP*
G04 Layer:  VIA CLASS/TOP*
G04 *
G04 Offset:    (0.00 0.00)*
G04 Mirror:    No*
G04 Mode:      Positive*
G04 Rotation:  0*
G04 FullContactRelief:  No*
G04 UndefLineWidth:     0.00*
G04 ================== end FILE IDENTIFICATION RECORD ====================*
%FSLAX25Y25*MOIN*%
%IR0*IPPOS*OFA0.00000B0.00000*MIA0B0*SFA1.00000B1.00000*%
%ADD22R,.04756X.06697*%
%ADD13C,.016*%
%ADD18C,.03937*%
%ADD17R,.00906X.02953*%
%ADD10C,.06299*%
%ADD24R,.0315X.0315*%
%ADD23R,.06024X.05102*%
%ADD15R,.03173X.03402*%
%ADD21R,.04331X.02362*%
%ADD11R,.0315X.03543*%
%ADD12R,.02228X.02126*%
%ADD16R,.06102X.05276*%
%ADD20R,.055X.01598*%
%ADD19R,.01598X.055*%
%ADD14R,.01575X.06693*%
%ADD25C,.02*%
%ADD26C,.015*%
%ADD27C,.008*%
%ADD28C,.07302*%
G75*
%LPD*%
G75*
G36*
G01X2000Y-2000D02*
X289339D01*
Y-8357D01*
G02X288616Y-8593I-400J0D01*
G03X285669Y-7097I-2947J-2155D01*
G03Y-14399I0J-3651D01*
G03X288616Y-12903I0J3651D01*
G02X289339Y-13139I323J-236D01*
G01Y-18357D01*
G02X288616Y-18593I-400J0D01*
G03X285669Y-17097I-2947J-2155D01*
G03Y-24399I0J-3651D01*
G03X288616Y-22903I0J3651D01*
G02X289339Y-23139I323J-236D01*
G01Y-150168D01*
G02X288616Y-150404I-400J0D01*
G03X285669Y-148908I-2947J-2155D01*
G03Y-156210I0J-3651D01*
G03X288616Y-154714I0J3651D01*
G02X289339Y-154950I323J-236D01*
G01Y-160168D01*
G02X288616Y-160404I-400J0D01*
G03X285669Y-158908I-2947J-2155D01*
G03Y-166210I0J-3651D01*
G03X288616Y-164714I0J3651D01*
G02X289339Y-164950I323J-236D01*
G01Y-194850D01*
X2000D01*
Y-164951D01*
G02X2723Y-164715I400J0D01*
G03X5669Y-166210I2946J2155D01*
G03Y-158908I0J3651D01*
G03X2723Y-160403I0J-3650D01*
G02X2000Y-160167I-323J236D01*
G01Y-154951D01*
G02X2723Y-154715I400J0D01*
G03X5669Y-156210I2946J2155D01*
G03X6311Y-156153I-1J3651D01*
G01X6414Y-156135D01*
X9254Y-158974D01*
G03X10669Y-159560I1415J1415D01*
G01X12562D01*
G02X12868Y-160217I-1J-400D01*
G03X12018Y-162559I2801J-2342D01*
G03X19320I3651J0D01*
G03X18470Y-160217I-3651J0D01*
G02X18776Y-159560I307J257D01*
G01X22562D01*
G02X22868Y-160217I-1J-400D01*
G03X22018Y-162559I2801J-2342D01*
G03X25669Y-166210I3651J0D01*
G03X28011Y-165360I0J3651D01*
G02X28668Y-165666I257J-307D01*
G01Y-166673D01*
G03X29254Y-168088I2001J0D01*
G01X31619Y-170454D01*
G02X31418Y-171128I-283J-283D01*
G03X30304Y-172500I288J-1372D01*
G01Y-178435D01*
X27181D01*
G03X26679Y-178937I0J-502D01*
G01Y-181063D01*
G03X26833Y-181425I502J0D01*
G01X26894Y-181484D01*
Y-183097D01*
G02X26211Y-183380I-400J0D01*
G01X21415Y-178585D01*
G03X20000Y-177998I-1416J-1415D01*
G03X17998Y-180000I0J-2002D01*
G03X18585Y-181415I2002J1D01*
G01X28585Y-191415D01*
G03X30000Y-192002I1416J1415D01*
G01X177441D01*
G03X178856Y-191415I-1J2002D01*
G01X187244Y-183028D01*
X190632Y-186415D01*
G03X192047Y-187002I1416J1415D01*
G01X202441D01*
G03X203856Y-186415I-1J2002D01*
G01X207244Y-183028D01*
X210632Y-186415D01*
G03X212047Y-187002I1416J1415D01*
G01X222441D01*
G03X223856Y-186415I-1J2002D01*
G01X227244Y-183028D01*
X230632Y-186415D01*
G03X232047Y-187002I1416J1415D01*
G01X240000D01*
G03X241415Y-186415I-1J2002D01*
G01X245558Y-182273D01*
X246489D01*
X250632Y-186415D01*
G03X252047Y-187002I1416J1415D01*
G01X265215D01*
G03X266630Y-186415I-1J2002D01*
G01X268659Y-184386D01*
G03X269246Y-182971I-1415J1416D01*
G01Y-182040D01*
X269267Y-181997D01*
Y-181996D01*
G03X269320Y-181773I-448J224D01*
G01Y-178228D01*
G03X268819Y-177727I-501J0D01*
G01X265669D01*
G03X265168Y-178228I0J-501D01*
G01Y-182217D01*
X264386Y-182998D01*
X252876D01*
X252492Y-182614D01*
G02X252634Y-182273I142J141D01*
G01X254331D01*
G03X254832Y-181772I0J501D01*
G01Y-178228D01*
G03X254331Y-177727I-501J0D01*
G01X251181D01*
G03X250680Y-178228I0J-501D01*
G01Y-179836D01*
G02X249997Y-180119I-400J0D01*
G01X249320Y-179443D01*
Y-178228D01*
G03X248819Y-177727I-501J0D01*
G01X245669D01*
G03X245196Y-178062I0J-501D01*
G01X245149Y-178196D01*
X244803D01*
G03X243388Y-178782I0J-2001D01*
G01X239171Y-182998D01*
X232876D01*
X232492Y-182614D01*
G02X232634Y-182273I142J141D01*
G01X234331D01*
G03X234832Y-181772I0J501D01*
G01Y-178228D01*
G03X234331Y-177727I-501J0D01*
G01X231181D01*
G03X230680Y-178228I0J-501D01*
G01Y-179836D01*
G02X229997Y-180119I-400J0D01*
G01X229320Y-179443D01*
Y-178228D01*
G03X228819Y-177727I-501J0D01*
G01X225669D01*
G03X225168Y-178228I0J-501D01*
G01Y-179443D01*
X221612Y-182998D01*
X212876D01*
X212492Y-182614D01*
G02X212634Y-182273I142J141D01*
G01X214331D01*
G03X214832Y-181772I0J501D01*
G01Y-178228D01*
G03X214331Y-177727I-501J0D01*
G01X211181D01*
G03X210680Y-178228I0J-501D01*
G01Y-179836D01*
G02X209997Y-180119I-400J0D01*
G01X209320Y-179443D01*
Y-178228D01*
G03X208819Y-177727I-501J0D01*
G01X205669D01*
G03X205168Y-178228I0J-501D01*
G01Y-179443D01*
X201612Y-182998D01*
X192876D01*
X192492Y-182614D01*
G02X192634Y-182273I142J141D01*
G01X194331D01*
G03X194832Y-181772I0J501D01*
G01Y-178228D01*
G03X194331Y-177727I-501J0D01*
G01X191181D01*
G03X190680Y-178228I0J-501D01*
G01Y-179836D01*
G02X189997Y-180119I-400J0D01*
G01X189320Y-179443D01*
Y-178228D01*
G03X188819Y-177727I-501J0D01*
G01X185669D01*
G03X185168Y-178228I0J-501D01*
G01Y-179443D01*
X176612Y-187998D01*
X159949D01*
G02X159664Y-187318I0J400D01*
G01X163605Y-183377D01*
X163726Y-183421D01*
G03X165000Y-183651I1275J3421D01*
G03X161349Y-180000I0J3651D01*
G01Y-180001D01*
G03X161625Y-181393I3651J1D01*
G01X161542Y-181476D01*
X157519Y-185498D01*
X95000D01*
Y-182500D01*
X93706D01*
Y-180000D01*
Y-166296D01*
G02X94261Y-165927I400J0D01*
G03X95669Y-166210I1409J3368D01*
G03Y-158908I0J3651D01*
G03X93327Y-159758I0J-3651D01*
G02X92670Y-159452I-257J307D01*
G01Y-155666D01*
G02X93327Y-155360I400J-1D01*
G03X95669Y-156210I2342J2801D01*
G03Y-148908I0J3651D01*
G03X93327Y-149758I0J-3651D01*
G02X92670Y-149452I-257J307D01*
G01Y-133365D01*
G03X92084Y-131950I-2001J0D01*
G01X88331Y-128196D01*
G02X88614Y-127514I283J282D01*
G01X96031D01*
G03X97446Y-126927I-1J2002D01*
G01X104182Y-120191D01*
G02X104865Y-120474I283J-283D01*
G01Y-121701D01*
G03X105366Y-122202I501J0D01*
G01X108540D01*
G03X109041Y-121701I0J501D01*
G01Y-121402D01*
X109840D01*
G03X110399Y-121285I-2J1402D01*
G02X110959Y-121651I160J-367D01*
G01Y-121701D01*
G03X111460Y-122202I501J0D01*
G01X114634D01*
G03X115135Y-121701I0J501D01*
G01Y-121402D01*
X129166D01*
G03X130157Y-120991I-1J1402D01*
G01X137152Y-113996D01*
G03X137562Y-113006I-991J990D01*
G01Y-112307D01*
X144638D01*
G03X145140Y-111805I0J502D01*
G01Y-106305D01*
G03X144638Y-105803I-502J0D01*
G01X142682D01*
Y-102500D01*
G03X141667Y-101153I-1401J0D01*
G02X141495Y-100486I111J384D01*
G01X143080Y-98902D01*
X167500D01*
G03Y-96098I0J1402D01*
G01X159844D01*
G02X159561Y-95416I0J400D01*
G01X171238Y-83738D01*
G03X171752Y-82500I-1237J1239D01*
G01Y-63624D01*
X172110Y-63266D01*
G02X172451Y-63408I141J-142D01*
G01Y-64921D01*
G03X172952Y-65422I501J0D01*
G01X177285D01*
G03X177589Y-65319I0J501D01*
G02X178115Y-65354I243J-318D01*
G01X179618Y-66857D01*
Y-77500D01*
G03X181019Y-78902I1402J0D01*
G01X193938D01*
G03X194929Y-78491I-1J1402D01*
G01X199929Y-73491D01*
G03X200151Y-73202I-991J991D01*
G02X200780Y-73120I346J-201D01*
G01X200923Y-73263D01*
X200938Y-73292D01*
Y-73293D01*
G03X202500Y-74252I1562J793D01*
G03X204252Y-72500I0J1752D01*
G01Y-72363D01*
G03X203738Y-71125I-1751J-1D01*
G01X197500Y-64886D01*
Y-62273D01*
X198819D01*
G03X199320Y-61772I0J501D01*
G01Y-58228D01*
G03X198899Y-57733I-501J0D01*
G01X198834Y-57722D01*
X198646Y-57528D01*
Y-55606D01*
X200710Y-53541D01*
G03X201120Y-52551I-991J990D01*
G01Y-52550D01*
G03X199719Y-51148I-1402J0D01*
G03X198728Y-51559I1J-1402D01*
G01X196253Y-54034D01*
G03X195842Y-55025I991J-992D01*
G01Y-57528D01*
X195654Y-57722D01*
X195589Y-57733D01*
G03X195519Y-57750I83J-495D01*
G02X195000Y-57368I-119J382D01*
G01Y-49252D01*
X204275D01*
X212029Y-57005D01*
G03X213267Y-57518I1238J1237D01*
G01X221244D01*
Y-63348D01*
G03X221746Y-63850I502J0D01*
G01X226502D01*
G03X227004Y-63348I0J502D01*
G01Y-56652D01*
G03X226824Y-56267I-502J0D01*
G02X226799Y-55678I258J306D01*
G01X227566Y-54911D01*
G02X228248Y-55194I282J-283D01*
G01Y-66775D01*
X226275Y-68748D01*
X211999D01*
G03X210761Y-69262I1J-1751D01*
G01X194274Y-85748D01*
X184600D01*
G03X183362Y-86262I1J-1751D01*
G01X129431Y-140193D01*
G03X128918Y-141431I1237J-1238D01*
G01Y-149679D01*
G02X128236Y-149963I-400J0D01*
G03X125669Y-148908I-2567J-2595D01*
G03X122018Y-152559I0J-3651D01*
G03X123465Y-155470I3652J0D01*
G02X123451Y-156118I-241J-319D01*
G03X123208Y-156321I997J-1440D01*
G01X119431Y-160098D01*
G03X119228Y-160341I1237J-1239D01*
G02X118580Y-160355I-329J227D01*
G03X115669Y-158908I-2911J-2205D01*
G03X112018Y-162559I0J-3651D01*
G03X115390Y-166199I3651J0D01*
G02X115642Y-166881I-31J-399D01*
G01X106028Y-176495D01*
X105917Y-176466D01*
G03X105000Y-176349I-917J-3535D01*
G03X108651Y-180000I0J-3651D01*
G03X108534Y-179083I-3652J0D01*
G01X108505Y-178972D01*
X121907Y-165569D01*
G03X122260Y-165063I-1237J1239D01*
G02X122924Y-164966I364J-167D01*
G03X125669Y-166210I2745J2407D01*
G03X129320Y-162559I0J3651D01*
G03X127873Y-159648I-3652J0D01*
G02X127887Y-159000I241J319D01*
G03X128130Y-158797I-997J1440D01*
G01X131907Y-155020D01*
G03X132110Y-154777I-1237J1240D01*
G02X132758Y-154763I329J-227D01*
G03X135669Y-156210I2911J2205D01*
G03Y-148908I0J3651D01*
G03X133102Y-149963I0J-3650D01*
G02X132420Y-149679I-282J284D01*
G01Y-142156D01*
X143009Y-131568D01*
G02X143671Y-131724I283J-283D01*
G03X145000Y-132682I1329J443D01*
G01X157694D01*
Y-134638D01*
G03X158195Y-135140I502J0D01*
G01X163695D01*
G03X164196Y-134640I0J501D01*
G01Y-133039D01*
G03X164080Y-132718I-501J0D01*
G01X164059Y-132693D01*
X164006Y-132560D01*
X164059Y-132426D01*
X164080Y-132401D01*
G03X164196Y-132080I-385J321D01*
G01Y-130480D01*
G03X164080Y-130159I-501J0D01*
G01X164059Y-130134D01*
X164006Y-130000D01*
X164059Y-129866D01*
X164080Y-129841D01*
G03X164196Y-129520I-385J321D01*
G01Y-127920D01*
G03X164080Y-127599I-501J0D01*
G01X164059Y-127574D01*
X164006Y-127440D01*
X164059Y-127307D01*
X164080Y-127282D01*
G03X164196Y-126961I-385J321D01*
G01Y-126843D01*
X167176Y-123864D01*
X168541D01*
G02X168941Y-124251I0J-400D01*
G03X169454Y-125545I1750J-55D01*
G01X173104Y-129196D01*
G02X172821Y-129878I-283J-282D01*
G01X171861D01*
X170991Y-129009D01*
G03X170000Y-128598I-992J-991D01*
G03X168598Y-130000I0J-1402D01*
G03X169009Y-130991I1402J1D01*
G01X170289Y-132271D01*
G03X171280Y-132682I992J991D01*
G01X175804D01*
Y-134638D01*
G03X176305Y-135140I502J0D01*
G01X181805D01*
G03X182306Y-134640I0J501D01*
G01Y-133039D01*
G03X182190Y-132718I-501J0D01*
G01X182169Y-132693D01*
X182116Y-132560D01*
X182169Y-132426D01*
X182190Y-132401D01*
G03X182306Y-132080I-385J321D01*
G01Y-130480D01*
G03X182190Y-130159I-501J0D01*
G01X182169Y-130134D01*
X182116Y-130000D01*
X182169Y-129866D01*
X182190Y-129841D01*
G03X182306Y-129520I-385J321D01*
G01Y-127562D01*
X186704D01*
X190133Y-130991D01*
G03X191124Y-131402I992J991D01*
G01X194865D01*
Y-131701D01*
G03X195366Y-132202I501J0D01*
G01X198540D01*
G03X199041Y-131701I0J501D01*
G01Y-128299D01*
G03X198540Y-127798I-501J0D01*
G01X195366D01*
G03X194865Y-128299I0J-501D01*
G01Y-128598D01*
X191705D01*
X188276Y-125170D01*
G03X187286Y-124760I-990J-991D01*
G01X179052D01*
G03X178565Y-124848I2J-1401D01*
G01X178531Y-124860D01*
X176305D01*
G03X175804Y-125360I0J-501D01*
G01Y-125976D01*
G02X175121Y-126259I-400J0D01*
G01X173408Y-124546D01*
G02X173691Y-123864I283J282D01*
G01X189849D01*
X191977Y-125991D01*
G03X192968Y-126402I992J991D01*
G01X200948D01*
G03X201939Y-125991I-1J1402D01*
G01X203750Y-124180D01*
G02X204432Y-124463I282J-283D01*
G01Y-126518D01*
X203153Y-127798D01*
X201460D01*
G03X200959Y-128299I0J-501D01*
G01Y-131701D01*
G03X201460Y-132202I501J0D01*
G01X204634D01*
G03X205135Y-131701I0J501D01*
G01Y-129780D01*
X206825Y-128090D01*
G03X207236Y-127099I-991J992D01*
G01Y-117799D01*
G03X206825Y-116808I-1402J-1D01*
G01X206125Y-116108D01*
G03X205135Y-115698I-990J-991D01*
G01X199739D01*
G03X198749Y-116108I0J-1401D01*
G01X197059Y-117798D01*
X195366D01*
G03X194865Y-118299I0J-501D01*
G01Y-121701D01*
G03X195366Y-122202I501J0D01*
G01X198540D01*
G03X199041Y-121701I0J501D01*
G01Y-119780D01*
X200321Y-118500D01*
X200959D01*
Y-121701D01*
G03X201179Y-122116I501J0D01*
G02X201237Y-122729I-225J-331D01*
G01X200367Y-123598D01*
X193549D01*
X191421Y-121471D01*
G03X190430Y-121060I-992J-991D01*
G01X166595D01*
G03X165604Y-121471I1J-1402D01*
G01X162315Y-124760D01*
X160942D01*
G03X160455Y-124848I2J-1401D01*
G01X160421Y-124860D01*
X158195D01*
G03X157694Y-125360I0J-501D01*
G01Y-127318D01*
X156801D01*
X155991Y-126509D01*
G03X155000Y-126098I-992J-991D01*
G03X153598Y-127500I0J-1402D01*
G03X154009Y-128491I1402J1D01*
G01X154714Y-129196D01*
G02X154431Y-129878I-283J-282D01*
G01X145664D01*
G02X145381Y-129196I0J400D01*
G01X176297Y-98280D01*
X178039Y-100021D01*
G03X179030Y-100432I992J991D01*
G01X181244D01*
Y-103348D01*
G03X181746Y-103850I502J0D01*
G01X186502D01*
G03X187004Y-103348I0J502D01*
G01Y-98133D01*
X189322Y-95814D01*
X192710D01*
G02X193059Y-96408I-1J-400D01*
G03X192996Y-96651I439J-243D01*
G01Y-103348D01*
G03X193498Y-103850I502J0D01*
G01X195704D01*
Y-104548D01*
X184050D01*
G03X183060Y-104958I0J-1401D01*
G01X176509Y-111509D01*
G03X176098Y-112500I991J-992D01*
G03X177500Y-113902I1402J0D01*
G03X178491Y-113491I-1J1402D01*
G01X184632Y-107350D01*
X202473D01*
X208315Y-113192D01*
G03X209305Y-113602I990J991D01*
G01X211749D01*
X234959Y-136812D01*
G03X235949Y-137222I990J991D01*
G01X257422D01*
G03X258412Y-136812I0J1401D01*
G01X260083Y-135142D01*
X262491D01*
X262551Y-135222D01*
G03X262951Y-135422I401J301D01*
G01X267285D01*
G03X267685Y-135222I-1J501D01*
G01X267745Y-135142D01*
X276475D01*
G03X277466Y-134731I-1J1402D01*
G01X278235Y-133962D01*
G03X278646Y-132971I-991J992D01*
G01Y-132472D01*
X278834Y-132278D01*
X278899Y-132267D01*
G03X279320Y-131772I-80J495D01*
G01Y-129316D01*
G02X280003Y-129033I400J0D01*
G01X280680Y-129710D01*
Y-131772D01*
G03X281181Y-132273I501J0D01*
G01X284331D01*
G03X284832Y-131772I0J501D01*
G01Y-128228D01*
G03X284331Y-127727I-501J0D01*
G01X282661D01*
X278646Y-123711D01*
Y-122472D01*
X278834Y-122278D01*
X278899Y-122267D01*
G03X279320Y-121772I-80J495D01*
G01Y-118228D01*
G03X278819Y-117727I-501J0D01*
G01X275669D01*
G03X275168Y-118228I0J-501D01*
G01Y-118598D01*
X273902D01*
Y-117500D01*
G03X271098I-1402J0D01*
G01Y-119500D01*
G03X271509Y-120491I1402J1D01*
G01X272009Y-120991D01*
G03X273000Y-121402I992J991D01*
G01X275168D01*
Y-121772D01*
G03X275589Y-122267I501J0D01*
G01X275654Y-122278D01*
X275842Y-122472D01*
Y-124292D01*
G03X276253Y-125283I1402J1D01*
G01X278014Y-127044D01*
G02X277732Y-127727I-283J-283D01*
G01X275669D01*
G03X275168Y-128228I0J-501D01*
G01Y-131772D01*
G03X275176Y-131864I501J-3D01*
G02X274783Y-132338I-393J-74D01*
G01X267745D01*
X267685Y-132258D01*
G03X267285Y-132058I-401J-301D01*
G01X262951D01*
G03X262551Y-132258I1J-501D01*
G01X262491Y-132338D01*
X259502D01*
G03X258511Y-132749I1J-1402D01*
G01X258232Y-133028D01*
G02X257549Y-132746I-283J283D01*
G01Y-132559D01*
G03X257371Y-132176I-501J0D01*
G02Y-131564I258J306D01*
G03X257549Y-131181I-323J383D01*
G01Y-128819D01*
G03X257371Y-128436I-501J0D01*
G02Y-127824I258J306D01*
G03X257549Y-127441I-323J383D01*
G01Y-125079D01*
G03X257048Y-124578I-501J0D01*
G01X252715D01*
G03X252315Y-124778I1J-501D01*
G01X252255Y-124858D01*
X245000D01*
G03Y-127662I0J-1402D01*
G01X252255D01*
X252315Y-127742D01*
G03X252393Y-127824I400J302D01*
G02Y-128436I-258J-306D01*
G03X252215Y-128819I323J-383D01*
G01Y-131098D01*
X240000D01*
G03X238609Y-132325I0J-1402D01*
G01X238587Y-132500D01*
X237500D01*
Y-134420D01*
X236531D01*
X214312Y-112201D01*
X215112Y-111402D01*
X217966D01*
G03X220000Y-112470I2034J1403D01*
G03Y-107530I0J2470D01*
G03X217966Y-108598I0J-2471D01*
G01X214531D01*
G03X213540Y-109009I1J-1402D01*
G01X211749Y-110800D01*
X209887D01*
X204045Y-104958D01*
G03X203055Y-104548I-990J-991D01*
G01X198506D01*
Y-103792D01*
X198577Y-103732D01*
G03X198756Y-103348I-323J384D01*
G01Y-96651D01*
G03X198693Y-96408I-502J0D01*
G02X199042Y-95814I350J194D01*
G01X213832D01*
X217569Y-99551D01*
X217555Y-99650D01*
G03X217530Y-100000I2445J-351D01*
G03X220000Y-102470I2470J0D01*
G03X220350Y-102445I-1J2470D01*
G01X220449Y-102431D01*
X224009Y-105991D01*
G03X225000Y-106402I992J991D01*
G01X227500D01*
G03Y-103598I0J1402D01*
G01X225581D01*
X222431Y-100449D01*
X222445Y-100350D01*
G03X222470Y-100000I-2445J351D01*
G03X220000Y-97530I-2470J0D01*
G03X219650Y-97555I1J-2470D01*
G01X219551Y-97569D01*
X215404Y-93422D01*
G03X214414Y-93012I-990J-991D01*
G01X188740D01*
G03X187750Y-93422I0J-1401D01*
G01X185022Y-96150D01*
X181746D01*
G03X181244Y-96652I0J-502D01*
G01Y-97628D01*
X179611D01*
X178280Y-96297D01*
X185325Y-89252D01*
X194999D01*
G03X196237Y-88738I-1J1751D01*
G01X210074Y-74902D01*
G02X210755Y-75151I282J-283D01*
G03X212500Y-76752I1745J150D01*
G01X214019D01*
X215168Y-77900D01*
Y-81772D01*
G03X215669Y-82273I501J0D01*
G01X216844D01*
X240810Y-106238D01*
G03X242048Y-106752I1239J1237D01*
G01X266774D01*
X270748Y-110725D01*
Y-111195D01*
X263880Y-118063D01*
G03X263366Y-119301I1237J-1239D01*
G01Y-124578D01*
X262952D01*
G03X262451Y-125079I0J-501D01*
G01Y-127441D01*
G03X262952Y-127942I501J0D01*
G01X264627D01*
X264653Y-127949D01*
G03X265583I465J1689D01*
G01X265609Y-127942D01*
X267284D01*
G03X267785Y-127441I0J501D01*
G01Y-125079D01*
G03X267284Y-124578I-501J0D01*
G01X266870D01*
Y-120026D01*
X273737Y-113158D01*
G03X274250Y-111949I-1238J1239D01*
G01X274253Y-111752D01*
X275145D01*
X275184Y-111900D01*
G03X275669Y-112273I485J129D01*
G01X278819D01*
G03X279320Y-111772I0J501D01*
G01Y-108228D01*
G03X278819Y-107727I-501J0D01*
G01X275669D01*
G03X275184Y-108100I0J-502D01*
G01X275145Y-108248D01*
X273224D01*
X268737Y-103762D01*
G03X267499Y-103248I-1239J-1237D01*
G01X259887D01*
G02X259509Y-102717I0J400D01*
G03X259538Y-102551I-473J168D01*
G01Y-97449D01*
G03X259037Y-96948I-501J0D01*
G01X259036D01*
X253012D01*
G03X252510Y-97449I0J-502D01*
G01Y-102551D01*
G03X252539Y-102717I502J2D01*
G02X252161Y-103248I-378J-131D01*
G01X247839D01*
G02X247461Y-102717I0J400D01*
G03X247490Y-102551I-473J168D01*
G01Y-97449D01*
G03X246989Y-96948I-501J0D01*
G01X246988D01*
X245728D01*
Y-89252D01*
X269834D01*
G03X271072Y-88738I-1J1751D01*
G01X274285Y-85525D01*
G03X274798Y-84287I-1237J1238D01*
G01Y-82188D01*
X274894Y-82129D01*
G03X275135Y-81701I-260J428D01*
G01Y-78299D01*
G03X274634Y-77798I-501J0D01*
G01X274250D01*
X267490Y-71037D01*
Y-67449D01*
G03X266989Y-66948I-501J0D01*
G01X266988D01*
X260964D01*
G03X260462Y-67449I0J-502D01*
G01Y-72551D01*
G03X260963Y-73052I501J0D01*
G01X260964D01*
X264552D01*
X268614Y-77115D01*
G02X268331Y-77798I-283J-283D01*
G01X265366D01*
G03X264865Y-78299I0J-501D01*
G01Y-81701D01*
G03X265356Y-82202I501J0D01*
G02X265552Y-82402I-4J-200D01*
G01Y-84604D01*
G03X265678Y-85183I1401J2D01*
G02X265314Y-85748I-364J-165D01*
G01X245728D01*
Y-83976D01*
G03X245214Y-82738I-1751J-1D01*
G01X242472Y-79995D01*
X242469Y-79916D01*
G03X240084Y-77531I-2469J-84D01*
G01X240005Y-77528D01*
X233738Y-71262D01*
G03X232500Y-70748I-1239J-1237D01*
G01X230194D01*
G02X229911Y-70066I0J400D01*
G01X231238Y-68738D01*
G03X231752Y-67500I-1237J1239D01*
G01Y-53677D01*
X243156Y-42273D01*
X244331D01*
G03X244832Y-41772I0J501D01*
G01Y-38228D01*
G03X244600Y-37805I-501J0D01*
G01X244508Y-37746D01*
Y-34058D01*
G03X243994Y-32820I-1751J-1D01*
G01X236179Y-25004D01*
G02X236383Y-24328I282J284D01*
G03X239320Y-20748I-713J3580D01*
G03X235669Y-17097I-3651J0D01*
G03X232758Y-18544I0J-3652D01*
G02X232110Y-18530I-319J241D01*
G03X231907Y-18287I-1440J-996D01*
G01X228130Y-14510D01*
G03X227887Y-14307I-1239J-1237D01*
G02X227873Y-13659I227J329D01*
G03X229320Y-10748I-2205J2911D01*
G03X222018I-3651J0D01*
G03X223073Y-13315I3650J0D01*
G02X222789Y-13996I-284J-281D01*
G01X221394D01*
X219174Y-11776D01*
X219203Y-11665D01*
G03X219320Y-10748I-3535J917D01*
G03X215669Y-14399I-3651J0D01*
G03X216586Y-14282I0J3652D01*
G01X216697Y-14253D01*
X219431Y-16986D01*
G03X220669Y-17500I1239J1237D01*
G01X222789D01*
G02X223073Y-18181I0J-400D01*
G03X222018Y-20748I2595J-2567D01*
G03X225669Y-24399I3651J0D01*
G03X228580Y-22952I0J3652D01*
G02X229228Y-22966I319J-241D01*
G03X229431Y-23209I1440J996D01*
G01X239195Y-32974D01*
G02X239014Y-33644I-282J-283D01*
G03X238378Y-34009I355J-1356D01*
G01X237539Y-34847D01*
X236453Y-33762D01*
G03X235215Y-33248I-1239J-1237D01*
G01X195000D01*
Y-32500D01*
X194020D01*
X194009Y-32311D01*
G03X192610Y-30990I-1399J-80D01*
G01X130107D01*
G03X129117Y-31400I0J-1401D01*
G01X109317Y-51200D01*
X104743D01*
G02X104460Y-50517I0J400D01*
G01X108482Y-46494D01*
G03X108996Y-45256I-1237J1239D01*
G01Y-42254D01*
X109088Y-42195D01*
G03X109320Y-41772I-269J423D01*
G01Y-38228D01*
G03X108819Y-37727I-501J0D01*
G01X105669D01*
G03X105168Y-38228I0J-501D01*
G01Y-41772D01*
G03X105400Y-42195I501J0D01*
G01X105492Y-42254D01*
Y-44531D01*
X101775Y-48248D01*
X88996D01*
Y-42254D01*
X89088Y-42195D01*
G03X89320Y-41772I-269J423D01*
G01Y-38228D01*
G03X88819Y-37727I-501J0D01*
G01X85669D01*
G03X85168Y-38228I0J-501D01*
G01Y-41772D01*
G03X85400Y-42195I501J0D01*
G01X85492Y-42254D01*
Y-48248D01*
X53225D01*
X48996Y-44019D01*
Y-42254D01*
X49088Y-42195D01*
G03X49320Y-41772I-269J423D01*
G01Y-38228D01*
G03X49088Y-37805I-501J0D01*
G01X48996Y-37746D01*
Y-37029D01*
G03X48482Y-35791I-1751J-1D01*
G01X46453Y-33762D01*
G03X45215Y-33248I-1239J-1237D01*
G01X9273D01*
G03X8035Y-33762I1J-1751D01*
G01X6006Y-35791D01*
G03X5492Y-37029I1237J-1239D01*
G01Y-37746D01*
X5400Y-37805D01*
G03X5168Y-38228I269J-423D01*
G01Y-41772D01*
G03X5669Y-42273I501J0D01*
G01X8819D01*
G03X9320Y-41772I0J501D01*
G01Y-38228D01*
G03X9169Y-37870I-501J-1D01*
G01X9168Y-37869D01*
X9025Y-37725D01*
X9998Y-36752D01*
X44490D01*
X45463Y-37725D01*
X45320Y-37869D01*
X45319Y-37870D01*
G03X45168Y-38228I350J-359D01*
G01Y-41772D01*
G03X45400Y-42195I501J0D01*
G01X45492Y-42254D01*
Y-44744D01*
G03X46006Y-45982I1751J1D01*
G01X50540Y-50517D01*
G02X50257Y-51200I-283J-283D01*
G01X35135D01*
Y-48299D01*
G03X34634Y-47798I-501J0D01*
G01X31460D01*
G03X30959Y-48299I0J-501D01*
G01Y-51200D01*
X30135D01*
X29041Y-50106D01*
Y-48299D01*
G03X28540Y-47798I-501J0D01*
G01X25366D01*
G03X24865Y-48299I0J-501D01*
G01Y-51701D01*
G03X25366Y-52202I501J0D01*
G01X27173D01*
X27537Y-52566D01*
G02X27254Y-53248I-283J-282D01*
G01X12773D01*
X12481Y-52956D01*
G02X12763Y-52273I283J283D01*
G01X14331D01*
G03X14832Y-51772I0J501D01*
G01Y-48228D01*
G03X14331Y-47727I-501J0D01*
G01X11181D01*
G03X10680Y-48228I0J-501D01*
G01Y-50189D01*
G02X9997Y-50472I-400J0D01*
G01X9320Y-49796D01*
Y-48228D01*
G03X8819Y-47727I-501J0D01*
G01X5669D01*
G03X5168Y-48228I0J-501D01*
G01Y-51772D01*
G03X5669Y-52273I501J0D01*
G01X6844D01*
X10000Y-55429D01*
Y-60000D01*
X10680D01*
Y-61794D01*
X9320D01*
Y-58228D01*
G03X8819Y-57727I-501J0D01*
G01X5669D01*
G03X5168Y-58228I0J-501D01*
G01Y-61772D01*
G03X5400Y-62195I501J0D01*
G01X5492Y-62254D01*
Y-62971D01*
G03X6006Y-64209I1751J1D01*
G01X6581Y-64784D01*
G03X7819Y-65298I1239J1237D01*
G01X9954D01*
Y-68435D01*
X7181D01*
G03X6679Y-68937I0J-502D01*
G01Y-71063D01*
G03X6833Y-71425I502J0D01*
G01X6894Y-71484D01*
Y-73205D01*
X3590Y-76509D01*
G03X3180Y-77499I991J-990D01*
G01Y-77500D01*
G03X4581Y-78902I1402J0D01*
G03X5572Y-78491I-1J1402D01*
G01X9286Y-74777D01*
G03X9696Y-73787I-991J990D01*
G01Y-71565D01*
X10873D01*
X10957Y-71584D01*
X10958D01*
G03X11705Y-71752I749J1584D01*
G03X12452Y-71584I-2J1752D01*
G01X12493Y-71565D01*
X12819D01*
G03X13321Y-71063I0J502D01*
G01Y-70677D01*
X13335Y-70641D01*
G03X13456Y-70003I-1630J640D01*
G01Y-65298D01*
X14325D01*
G03X15563Y-64784I-1J1751D01*
G01X18596Y-61752D01*
X28598D01*
Y-67727D01*
X25669D01*
G03X25168Y-68228I0J-501D01*
G01Y-71772D01*
G03X25589Y-72267I501J0D01*
G01X25654Y-72278D01*
X25842Y-72472D01*
Y-75000D01*
G03X27244Y-76402I1402J0D01*
G03X28154Y-76066I-1J1402D01*
G02X28814Y-76370I260J-304D01*
G01Y-95128D01*
X15000D01*
Y-95000D01*
X2000D01*
Y-23140D01*
G02X2723Y-22904I400J0D01*
G03X5669Y-24399I2946J2155D01*
G03Y-17097I0J3651D01*
G03X2723Y-18592I0J-3650D01*
G02X2000Y-18356I-323J236D01*
G01Y-13140D01*
G02X2723Y-12904I400J0D01*
G03X5669Y-14399I2946J2155D01*
G03Y-7097I0J3651D01*
G03X2723Y-8592I0J-3650D01*
G02X2000Y-8356I-323J236D01*
G01Y-2000D01*
G37*
G36*
G01X31402Y-61752D02*
X50377D01*
G02X50772Y-62216I0J-400D01*
G03X50748Y-62500I1728J-289D01*
G01Y-68031D01*
G03X51262Y-69269I1751J1D01*
G01X53231Y-71238D01*
G03X54469Y-71752I1239J1237D01*
G01X55145D01*
X55184Y-71900D01*
G03X55669Y-72273I485J129D01*
G01X58819D01*
G03X59320Y-71772I0J501D01*
G01Y-68228D01*
G03X58819Y-67727I-501J0D01*
G01X55669D01*
G03X55335Y-67855I1J-501D01*
G02X54785Y-67839I-267J298D01*
G01X54252Y-67306D01*
Y-64252D01*
X59646D01*
X62500Y-67106D01*
Y-67727D01*
X61181D01*
G03X60680Y-68228I0J-501D01*
G01Y-71772D01*
G03X61181Y-72273I501J0D01*
G01X64331D01*
G03X64832Y-71772I0J501D01*
G01Y-70404D01*
G02X65515Y-70121I400J0D01*
G01X79954Y-84559D01*
Y-98435D01*
X77181D01*
G03X76679Y-98937I0J-502D01*
G01Y-101063D01*
G03X77136Y-101563I502J0D01*
G02X77318Y-101762I-18J-199D01*
G01Y-112163D01*
G02X76783Y-112539I-400J0D01*
G03X76614Y-112510I-168J-473D01*
G01X75708D01*
G03X75206Y-113012I0J-502D01*
G01Y-115964D01*
G03X75708Y-116466I502J0D01*
G01X76614D01*
G03X77104Y-116069I0J501D01*
G01X77138Y-115911D01*
X77500D01*
Y-116860D01*
X76949D01*
G03X76448Y-117362I0J-501D01*
G01Y-122500D01*
X75000D01*
Y-124110D01*
X74408D01*
G03X73006Y-125512I0J-1402D01*
G03X73080Y-125960I1393J0D01*
G02X72701Y-126488I-379J-128D01*
G01X56300D01*
X52768Y-122956D01*
G02X53051Y-122273I283J283D01*
G01X54331D01*
G03X54832Y-121772I0J501D01*
G01Y-118228D01*
G03X54331Y-117727I-501J0D01*
G01X51402D01*
Y-115727D01*
G03X50991Y-114736I-1402J-1D01*
G01X49050Y-112795D01*
G02X49105Y-112184I283J283D01*
G03X49320Y-111772I-286J412D01*
G01Y-108228D01*
G03X48819Y-107727I-501J0D01*
G01X45669D01*
G03X45168Y-108228I0J-501D01*
G01Y-111772D01*
G03X45650Y-112273I501J0D01*
G02X45842Y-112472I-8J-200D01*
G01Y-112971D01*
G03X46253Y-113962I1402J1D01*
G01X48598Y-116308D01*
Y-117727D01*
X45669D01*
G03X45168Y-118228I0J-501D01*
G01Y-118598D01*
X37500D01*
G03Y-121402I0J-1402D01*
G01X45168D01*
Y-121772D01*
G03X45669Y-122273I501J0D01*
G01X48593D01*
X48624Y-122435D01*
G03X49009Y-123161I1376J265D01*
G01X53408Y-127560D01*
G02X53125Y-128242I-283J-282D01*
G01X39269D01*
G02X38876Y-127766I-1J400D01*
G03X38902Y-127500I-1376J269D01*
G03X37500Y-126098I-1402J0D01*
G01X30000D01*
Y-125000D01*
X29337D01*
G02X28950Y-124498I0J400D01*
G03X28966Y-124370I-486J126D01*
G01Y-117678D01*
G03X28464Y-117176I-502J0D01*
G01X23960D01*
Y-115077D01*
G03X23676Y-114231I-1402J0D01*
G02X23995Y-113590I319J241D01*
G01X32500D01*
G03Y-110786I0J1402D01*
G01X31616D01*
Y-72273D01*
X34331D01*
G03X34832Y-71772I0J501D01*
G01Y-68228D01*
G03X34331Y-67727I-501J0D01*
G01X31402D01*
Y-61752D01*
G37*
G36*
G01X147597Y-45064D02*
X159615D01*
G02X160015Y-45461I0J-400D01*
G03X160018Y-45544I1401J9D01*
G02X159837Y-45756I-200J-13D01*
G03X158762Y-46262I164J-1744D01*
G01X156262Y-48762D01*
G03X155748Y-50000I1237J-1239D01*
G03X157348Y-51745I1752J0D01*
G02X157596Y-52426I-35J-398D01*
G01X148752Y-61270D01*
X144832D01*
Y-58228D01*
G03X144331Y-57727I-501J0D01*
G01X141181D01*
G03X140680Y-58228I0J-501D01*
G01Y-61772D01*
G03X141181Y-62273I501J0D01*
G01X141332D01*
G02X141615Y-62956I0J-400D01*
G01X136844Y-67727D01*
X135669D01*
G03X135168Y-68228I0J-501D01*
G01Y-71772D01*
G03X135669Y-72273I501J0D01*
G01X138819D01*
G03X139320Y-71772I0J501D01*
G01Y-70204D01*
X139997Y-69528D01*
G02X140680Y-69811I283J-283D01*
G01Y-71772D01*
G03X141181Y-72273I501J0D01*
G01X144331D01*
G03X144832Y-71772I0J501D01*
G01Y-68228D01*
G03X144331Y-67727I-501J0D01*
G01X142764D01*
G02X142481Y-67044I0J400D01*
G01X144751Y-64774D01*
X149477D01*
G03X150715Y-64260I-1J1751D01*
G01X159377Y-55599D01*
G02X160050Y-55792I283J-283D01*
G03X161416Y-56880I1366J314D01*
G01X162215D01*
Y-57441D01*
G03X162393Y-57824I501J0D01*
G02Y-58436I-258J-306D01*
G03X162215Y-58819I323J-383D01*
G01Y-61181D01*
G03X162393Y-61564I501J0D01*
G02Y-62176I-258J-306D01*
G03X162215Y-62559I323J-383D01*
G01Y-64921D01*
G03X162716Y-65422I501J0D01*
G01X163480D01*
Y-66881D01*
G03X163891Y-67872I1402J1D01*
G01X164510Y-68491D01*
G03X165501Y-68902I992J991D01*
G01X167501D01*
G03X167771Y-68875I-4J1402D01*
G02X168248Y-69268I77J-392D01*
G01Y-81775D01*
X156775Y-93248D01*
X145140D01*
Y-88195D01*
G03X144638Y-87693I-502J0D01*
G01X143530D01*
G02X143247Y-87010I0J400D01*
G01X146356Y-83902D01*
X162500D01*
G03Y-81098I0J1402D01*
G01X145775D01*
G03X144784Y-81509I1J-1402D01*
G01X141154Y-85139D01*
G02X140472Y-84856I-282J283D01*
G01Y-83720D01*
G03X139958Y-82482I-1751J-1D01*
G01X128738Y-71262D01*
G03X127500Y-70748I-1239J-1237D01*
G03X127420Y-70750I4J-1752D01*
G02X127002Y-70351I-18J399D01*
G01Y-66345D01*
X132605Y-60742D01*
G02X133216Y-60797I283J-283D01*
G03X134369Y-61402I1153J796D01*
G01X135168D01*
Y-61772D01*
G03X135669Y-62273I501J0D01*
G01X138819D01*
G03X139320Y-61772I0J501D01*
G01Y-58228D01*
G03X138819Y-57727I-501J0D01*
G01X136585D01*
G02X136302Y-57044I0J400D01*
G01X138659Y-54687D01*
G03X139246Y-53272I-1415J1416D01*
G01Y-52040D01*
X139267Y-51997D01*
G03X139320Y-51772I-448J224D01*
G01Y-48228D01*
G03X138819Y-47727I-501J0D01*
G01X135669D01*
G03X135168Y-48228I0J-501D01*
G01Y-51772D01*
G03X135221Y-51997I501J-1D01*
G01X135242Y-52040D01*
Y-52443D01*
X123585Y-64101D01*
G03X122998Y-65516I1415J-1416D01*
G01Y-98190D01*
X113190Y-107998D01*
X111705D01*
G03X110457Y-108435I0J-2002D01*
G01X107181D01*
G03X106859Y-108552I0J-502D01*
G01X106803Y-108598D01*
X91130D01*
G03Y-111402I0J-1402D01*
G01X106803D01*
X106859Y-111448D01*
G03X106899Y-111478I321J386D01*
G01X106914Y-111489D01*
X107069Y-111643D01*
X95202Y-123510D01*
X83819D01*
G02X83478Y-122901I0J400D01*
G03X83552Y-122638I-430J263D01*
G01Y-117362D01*
G03X83051Y-116860I-502J0D01*
G01X82500D01*
Y-116240D01*
X82958D01*
X83017Y-116304D01*
G03X83386Y-116466I369J339D01*
G01X84292D01*
G03X84793Y-115957I0J501D01*
G03Y-113019I-955J1469D01*
G03X84741Y-112789I-501J8D01*
G01X84721Y-112747D01*
Y-112500D01*
X85518D01*
X94009Y-120991D01*
G03X95000Y-121402I992J991D01*
G03X96402Y-120000I0J1402D01*
G03X95991Y-119009I-1402J-1D01*
G01X86402Y-109419D01*
Y-70000D01*
G03X83598I-1402J0D01*
G01Y-82285D01*
G02X82916Y-82568I-400J0D01*
G01X68531Y-68183D01*
G02X68814Y-67500I283J283D01*
G01X70000D01*
Y-66752D01*
X102900D01*
G03X104138Y-66238I-1J1751D01*
G01X104869Y-65508D01*
G02X105552Y-65791I283J-283D01*
G01Y-67598D01*
G02X105356Y-67798I-200J0D01*
G03X104865Y-68299I10J-501D01*
G01Y-71701D01*
G03X105366Y-72202I501J0D01*
G01X108540D01*
G03X109041Y-71701I0J501D01*
G01Y-68299D01*
G03X108550Y-67798I-501J0D01*
G02X108354Y-67598I4J200D01*
G01Y-66128D01*
X128081Y-46402D01*
X145679D01*
G03X146670Y-45991I-1J1402D01*
G01X147597Y-45064D01*
G37*
G36*
G01X222969Y-74252D02*
X231775D01*
X237529Y-80006D01*
X237531Y-80085D01*
G03X239915Y-82469I2469J85D01*
G01X239994Y-82471D01*
X242224Y-84701D01*
Y-96948D01*
X240964D01*
G03X240462Y-97449I0J-502D01*
G01Y-99972D01*
G02X239780Y-100255I-400J0D01*
G01X222481Y-82956D01*
G02X222764Y-82273I283J283D01*
G01X224331D01*
G03X224832Y-81772I0J501D01*
G01Y-78228D01*
G03X224331Y-77727I-501J0D01*
G01X221181D01*
G03X220680Y-78228I0J-501D01*
G01Y-80189D01*
G02X219997Y-80472I-400J0D01*
G01X219320Y-79796D01*
Y-77900D01*
X222969Y-74252D01*
G37*
%LPC*%
G75*
G36*
G01X172292Y-153954D02*
X172248Y-153833D01*
G02X172018Y-152559I3421J1275D01*
G02X175669Y-156210I3651J0D01*
G02X174276Y-155934I0J3651D01*
G01X172070Y-158140D01*
Y-160073D01*
G03X172786Y-160319I400J0D01*
G02X175669Y-158908I2883J-2240D01*
G02Y-166210I0J-3651D01*
G02X172749Y-164751I0J3652D01*
G03X172039Y-164906I-319J-240D01*
G02X171660Y-165600I-1370J297D01*
G01X168769Y-168491D01*
G02X167778Y-168902I-992J991D01*
G01X147500D01*
G02X146098Y-167500I0J1402D01*
G02X146286Y-166801I1401J-2D01*
G03X145912Y-166202I-347J200D01*
G02X145669Y-166210I-242J3643D01*
G02X149320Y-162559I0J3651D01*
G02X147976Y-165389I-3652J0D01*
G03X148229Y-166098I253J-309D01*
G01X153109D01*
G03X153362Y-165389I0J400D01*
G02X152018Y-162559I2308J2830D01*
G02X159320I3651J0D01*
G02X157976Y-165389I-3652J0D01*
G03X158229Y-166098I253J-309D01*
G01X163109D01*
G03X163362Y-165389I0J400D01*
G02X162018Y-162559I2308J2830D01*
G02X165669Y-158908I3651J0D01*
G02X168552Y-160319I0J-3651D01*
G03X169268Y-160073I316J246D01*
G01Y-157559D01*
G02X169678Y-156568I1401J1D01*
G01X172292Y-153954D01*
G37*
G36*
G01X256997Y-37573D02*
X258887Y-35684D01*
G02X260125Y-35170I1239J-1237D01*
G01X273989D01*
G02X275227Y-35684I-1J-1751D01*
G01X277341Y-37798D01*
X278540D01*
G02X279041Y-38299I0J-501D01*
G01Y-41701D01*
G02X278540Y-42202I-501J0D01*
G01X275366D01*
G02X274865Y-41701I0J501D01*
G01Y-40275D01*
X273264Y-38674D01*
X264832D01*
Y-41772D01*
G02X264331Y-42273I-501J0D01*
G01X261181D01*
G02X260680Y-41772I0J501D01*
G01Y-39810D01*
G03X259997Y-39527I-400J0D01*
G01X259320Y-40203D01*
Y-41772D01*
G02X258819Y-42273I-501J0D01*
G01X255669D01*
G02X255168Y-41772I0J501D01*
G01Y-39709D01*
X254451Y-38992D01*
X247500D01*
G02Y-36190I0J1401D01*
G01X255032D01*
G02X256023Y-36600I1J-1401D01*
G01X256997Y-37573D01*
G37*
G36*
G01X64865Y-41701D02*
Y-38299D01*
G02X65366Y-37798I501J0D01*
G01X68540D01*
G02X69041Y-38299I0J-501D01*
G01Y-41701D01*
G02X68821Y-42116I-501J0D01*
G03X68763Y-42729I225J-331D01*
G01X69633Y-43598D01*
X72500D01*
G02Y-46402I0J-1402D01*
G01X69052D01*
G02X68061Y-45991I1J1402D01*
G01X65962Y-43892D01*
G02X65552Y-42901I991J990D01*
G01Y-42402D01*
G03X65356Y-42202I-200J0D01*
G02X64865Y-41701I10J501D01*
G37*
G36*
G01X274788Y-51402D02*
G02Y-48598I0J1402D01*
G01X277966D01*
G02X280000Y-47530I2034J-1403D01*
G02Y-52470I0J-2470D01*
G02X277966Y-51402I0J2471D01*
G01X274788D01*
G37*
G36*
G01X260680Y-49796D02*
Y-48228D01*
G02X261181Y-47727I501J0D01*
G01X264331D01*
G02X264832Y-48228I0J-501D01*
G01Y-51772D01*
G02X264331Y-52273I-501J0D01*
G01X263156D01*
X260275Y-55153D01*
G02X259037Y-55666I-1238J1237D01*
G01X243915D01*
G02X242677Y-55153I0J1750D01*
G01X241262Y-53738D01*
G02X240874Y-53151I1237J1239D01*
G03X240220Y-53016I-372J-148D01*
G01X237769Y-55467D01*
G03X238052Y-56150I283J-283D01*
G01X238254D01*
G02X238756Y-56652I0J-502D01*
G01Y-63348D01*
G02X238254Y-63850I-502J0D01*
G01X233498D01*
G02X232996Y-63348I0J502D01*
G01Y-56652D01*
G02X233498Y-56150I502J0D01*
G01X234474D01*
Y-55378D01*
G02X234885Y-54387I1402J-1D01*
G01X240263Y-49009D01*
G02X241254Y-48598I992J-991D01*
G01X255168D01*
Y-48228D01*
G02X255669Y-47727I501J0D01*
G01X258819D01*
G02X259320Y-48228I0J-501D01*
G01Y-50189D01*
G03X260003Y-50472I400J0D01*
G01X260680Y-49796D01*
G37*
G36*
G01X274845Y-90476D02*
X273426D01*
G02Y-87672I0J1402D01*
G01X275426D01*
G02X276417Y-88083I-1J-1402D01*
G01X283940Y-95606D01*
G02X284350Y-96597I-991J-990D01*
G01Y-97724D01*
G03X284543Y-97924I200J0D01*
G02X285026Y-98425I-18J-501D01*
G01Y-101575D01*
G02X284524Y-102076I-502J1D01*
G01X281374D01*
G02X280872Y-101575I-1J501D01*
G01Y-98425D01*
G02X281355Y-97924I501J0D01*
G03X281548Y-97724I-7J200D01*
G01Y-97178D01*
X274845Y-90476D01*
G37*
G36*
G01X239009Y-110991D02*
X219009Y-90991D01*
G02X218598Y-90000I991J992D01*
G02X220000Y-88598I1402J0D01*
G02X220991Y-89009I-1J-1402D01*
G01X240581Y-108598D01*
X254865D01*
Y-108299D01*
G02X255366Y-107798I501J0D01*
G01X258540D01*
G02X259041Y-108299I0J-501D01*
G01Y-111701D01*
G02X258540Y-112202I-501J0D01*
G01X255366D01*
G02X254865Y-111701I0J501D01*
G01Y-111402D01*
X240000D01*
G02X239009Y-110991I1J1402D01*
G37*
G36*
G01X270680Y-181772D02*
Y-178228D01*
G02X271181Y-177727I501J0D01*
G01X274331D01*
G02X274832Y-178228I0J-501D01*
G01Y-181772D01*
G02X274331Y-182273I-501J0D01*
G01X271181D01*
G02X270680Y-181772I0J501D01*
G37*
G36*
G01X260959Y-111701D02*
Y-108299D01*
G02X261460Y-107798I501J0D01*
G01X264634D01*
G02X265135Y-108299I0J-501D01*
G01Y-111701D01*
G02X264634Y-112202I-501J0D01*
G01X261460D01*
G02X260959Y-111701I0J501D01*
G37*
G36*
G01X280680Y-121772D02*
Y-118228D01*
G02X281181Y-117727I501J0D01*
G01X284331D01*
G02X284832Y-118228I0J-501D01*
G01Y-121772D01*
G02X284331Y-122273I-501J0D01*
G01X281181D01*
G02X280680Y-121772I0J501D01*
G37*
G36*
G01Y-111772D02*
Y-108228D01*
G02X281181Y-107727I501J0D01*
G01X284331D01*
G02X284832Y-108228I0J-501D01*
G01Y-111772D01*
G02X284331Y-112273I-501J0D01*
G01X281181D01*
G02X280680Y-111772I0J501D01*
G37*
G36*
G01X274974Y-101575D02*
Y-98425D01*
G02X275476Y-97924I502J-1D01*
G01X278626D01*
G02X279128Y-98425I1J-501D01*
G01Y-101575D01*
G02X278626Y-102076I-502J1D01*
G01X275476D01*
G02X274974Y-101575I-1J501D01*
G37*
G36*
G01X200680Y-61772D02*
Y-58228D01*
G02X201181Y-57727I501J0D01*
G01X204331D01*
G02X204832Y-58228I0J-501D01*
G01Y-61772D01*
G02X204331Y-62273I-501J0D01*
G01X201181D01*
G02X200680Y-61772I0J501D01*
G37*
G36*
G01X272510Y-72551D02*
Y-67449D01*
G02X273012Y-66948I502J-1D01*
G01X279036D01*
G02X279538Y-67449I1J-501D01*
G01Y-72551D01*
G02X279036Y-73052I-502J1D01*
G01X273012D01*
G02X272510Y-72551I-1J501D01*
G37*
G36*
G01X10680Y-41772D02*
Y-38228D01*
G02X11181Y-37727I501J0D01*
G01X14331D01*
G02X14832Y-38228I0J-501D01*
G01Y-41772D01*
G02X14331Y-42273I-501J0D01*
G01X11181D01*
G02X10680Y-41772I0J501D01*
G37*
G36*
G01X50680D02*
Y-38228D01*
G02X51181Y-37727I501J0D01*
G01X54331D01*
G02X54832Y-38228I0J-501D01*
G01Y-41772D01*
G02X54331Y-42273I-501J0D01*
G01X51181D01*
G02X50680Y-41772I0J501D01*
G37*
G36*
G01X70959Y-41701D02*
Y-38299D01*
G02X71460Y-37798I501J0D01*
G01X74634D01*
G02X75135Y-38299I0J-501D01*
G01Y-41701D01*
G02X74634Y-42202I-501J0D01*
G01X71460D01*
G02X70959Y-41701I0J501D01*
G37*
G36*
G01X90680Y-41772D02*
Y-38228D01*
G02X91181Y-37727I501J0D01*
G01X94331D01*
G02X94832Y-38228I0J-501D01*
G01Y-41772D01*
G02X94331Y-42273I-501J0D01*
G01X91181D01*
G02X90680Y-41772I0J501D01*
G37*
G36*
G01X110680D02*
Y-38228D01*
G02X111181Y-37727I501J0D01*
G01X114331D01*
G02X114832Y-38228I0J-501D01*
G01Y-41772D01*
G02X114331Y-42273I-501J0D01*
G01X111181D01*
G02X110680Y-41772I0J501D01*
G37*
G36*
G01X280959Y-41701D02*
Y-38299D01*
G02X281460Y-37798I501J0D01*
G01X284634D01*
G02X285135Y-38299I0J-501D01*
G01Y-41701D01*
G02X284634Y-42202I-501J0D01*
G01X281460D01*
G02X280959Y-41701I0J501D01*
G37*
G36*
G01X227500Y-141402D02*
X187500D01*
G02Y-138598I0J1402D01*
G01X227500D01*
G02Y-141402I0J-1402D01*
G37*
G36*
G01X60680Y-81772D02*
Y-78228D01*
G02X61181Y-77727I501J0D01*
G01X64331D01*
G02X64832Y-78228I0J-501D01*
G01Y-81772D01*
G02X64331Y-82273I-501J0D01*
G01X61181D01*
G02X60680Y-81772I0J501D01*
G37*
G36*
G01X50680Y-111772D02*
Y-108228D01*
G02X51181Y-107727I501J0D01*
G01X54331D01*
G02X54832Y-108228I0J-501D01*
G01Y-111772D01*
G02X54331Y-112273I-501J0D01*
G01X51181D01*
G02X50680Y-111772I0J501D01*
G37*
G36*
G01X55168Y-78598D02*
Y-78228D01*
G02X55669Y-77727I501J0D01*
G01X58819D01*
G02X59320Y-78228I0J-501D01*
G01Y-81772D01*
G02X58819Y-82273I-501J0D01*
G01X55669D01*
G02X55168Y-81772I0J501D01*
G01Y-81402D01*
X54369D01*
G02Y-78598I0J1402D01*
G01X55168D01*
G37*
G36*
G01X117500Y-61098D02*
X121919D01*
X124009Y-59009D01*
G02X125000Y-58598I992J-991D01*
G02X126402Y-60000I0J-1402D01*
G02X125991Y-60991I-1402J1D01*
G01X123491Y-63491D01*
G02X122500Y-63902I-992J991D01*
G01X117500D01*
G02Y-61098I0J1402D01*
G37*
G36*
G01X140680Y-51772D02*
Y-48228D01*
G02X141181Y-47727I501J0D01*
G01X144331D01*
G02X144832Y-48228I0J-501D01*
G01Y-51772D01*
G02X144331Y-52273I-501J0D01*
G01X141181D01*
G02X140680Y-51772I0J501D01*
G37*
G36*
G01X104865Y-81701D02*
Y-78299D01*
G02X105366Y-77798I501J0D01*
G01X108540D01*
G02X109041Y-78299I0J-501D01*
G01Y-81701D01*
G02X108540Y-82202I-501J0D01*
G01X105366D01*
G02X104865Y-81701I0J501D01*
G37*
G36*
G01X110959Y-71701D02*
Y-68299D01*
G02X111460Y-67798I501J0D01*
G01X114634D01*
G02X115135Y-68299I0J-501D01*
G01Y-71701D01*
G02X114634Y-72202I-501J0D01*
G01X111460D01*
G02X110959Y-71701I0J501D01*
G37*
G36*
G01Y-81701D02*
Y-78299D01*
G02X111460Y-77798I501J0D01*
G01X114634D01*
G02X115135Y-78299I0J-501D01*
G01Y-81701D01*
G02X114644Y-82202I-501J0D01*
G03X114448Y-82402I4J-200D01*
G01Y-82901D01*
G02X114038Y-83892I-1401J-1D01*
G01X111939Y-85991D01*
G02X110948Y-86402I-992J991D01*
G01X107944D01*
X107230Y-87115D01*
G03X107513Y-87798I283J-283D01*
G01X108540D01*
G02X109041Y-88299I0J-501D01*
G01Y-88598D01*
X110140D01*
G02X110467Y-88637I-1J-1402D01*
G03X110960Y-88271I94J389D01*
G02X111460Y-87798I500J-28D01*
G01X114634D01*
G02X115135Y-88299I0J-501D01*
G01Y-91701D01*
G02X114644Y-92202I-501J0D01*
G03X114448Y-92402I4J-200D01*
G01Y-105000D01*
G02X111646I-1401J0D01*
G01Y-102586D01*
G03X111072Y-102225I-400J0D01*
G02X110000Y-102470I-1072J2225D01*
G02X107966Y-101402I0J2471D01*
G01X100119D01*
G02Y-98598I0J1402D01*
G01X107966D01*
G02X110000Y-97530I2034J-1403D01*
G02X111072Y-97775I0J-2470D01*
G03X111646Y-97414I174J361D01*
G01Y-92402D01*
G03X111450Y-92202I-200J0D01*
G02X110960Y-91729I11J501D01*
G03X110467Y-91363I-399J-23D01*
G02X110140Y-91402I-328J1363D01*
G01X109041D01*
Y-91701D01*
G02X108540Y-92202I-501J0D01*
G01X105366D01*
G02X104865Y-91701I0J501D01*
G01Y-90446D01*
G03X104182Y-90163I-400J0D01*
G01X90991Y-103354D01*
G02X90000Y-103764I-990J991D01*
G02X88598Y-102363I-1J1401D01*
G02X89009Y-101372I1402J-1D01*
G01X106372Y-84009D01*
G02X107363Y-83598I992J-991D01*
G01X110367D01*
X111237Y-82729D01*
G03X111179Y-82116I-283J282D01*
G02X110959Y-81701I281J415D01*
G37*
G54D28*
X275669Y-10748D03*
X255669D03*
X265669D03*
X235669D03*
X246063D03*
X205669D03*
X185669D03*
X195669D03*
X155669D03*
X165669D03*
X175669D03*
X135669D03*
X145669D03*
X115669D03*
X125669D03*
X85669D03*
X95669D03*
X105669D03*
X65669D03*
X75669D03*
X45669D03*
X55669D03*
X15669D03*
X25669D03*
X35669D03*
X275669Y-20748D03*
X255669D03*
X265669D03*
X246063D03*
X205669D03*
X215669D03*
X185669D03*
X195669D03*
X155669D03*
X165669D03*
X175669D03*
X135669D03*
X145669D03*
X115669D03*
X125669D03*
X85669D03*
X95669D03*
X105669D03*
X65669D03*
X75669D03*
X45669D03*
X55669D03*
X15669D03*
X25669D03*
X35669D03*
X275669Y-162559D03*
Y-152559D03*
X255669Y-162559D03*
Y-152559D03*
X265669Y-162559D03*
Y-152559D03*
X225669Y-162559D03*
Y-152559D03*
X235669Y-162559D03*
Y-152559D03*
X246063Y-162559D03*
Y-152559D03*
X205669Y-162559D03*
Y-152559D03*
X215669Y-162559D03*
Y-152559D03*
X185669Y-162559D03*
Y-152559D03*
X195669Y-162559D03*
Y-152559D03*
X155669D03*
X165669D03*
X135669Y-162559D03*
X145669Y-152559D03*
X115669D03*
X105669Y-162559D03*
Y-152559D03*
X175000Y-180000D03*
X155000D03*
X145000D03*
X135000D03*
X125000D03*
X115000D03*
%LPD*%
G75*
G54D10*
X5669Y-152559D03*
Y-162559D03*
Y-20748D03*
Y-10748D03*
X35669Y-152559D03*
Y-162559D03*
X25669Y-152559D03*
Y-162559D03*
X15669Y-152559D03*
Y-162559D03*
X35669Y-20748D03*
X25669D03*
X15669D03*
X35669Y-10748D03*
X25669D03*
X15669D03*
X55669Y-152559D03*
Y-162559D03*
X45669Y-152559D03*
Y-162559D03*
X55669Y-20748D03*
X45669D03*
X55669Y-10748D03*
X45669D03*
X75669Y-152559D03*
Y-162559D03*
X65669Y-152559D03*
Y-162559D03*
X75669Y-20748D03*
X65669D03*
X75669Y-10748D03*
X65669D03*
X105000Y-180000D03*
X105669Y-152559D03*
Y-162559D03*
X95669Y-152559D03*
Y-162559D03*
X85669Y-152559D03*
Y-162559D03*
X105669Y-20748D03*
X95669D03*
X85669D03*
X105669Y-10748D03*
X95669D03*
X85669D03*
X115000Y-180000D03*
X125000D03*
X125669Y-152559D03*
Y-162559D03*
X115669Y-152559D03*
Y-162559D03*
X125669Y-20748D03*
X115669D03*
X125669Y-10748D03*
X115669D03*
X135000Y-180000D03*
X145000D03*
X145669Y-152559D03*
Y-162559D03*
X135669Y-152559D03*
Y-162559D03*
X145669Y-20748D03*
X135669D03*
X145669Y-10748D03*
X135669D03*
X155000Y-180000D03*
X165000D03*
X175000D03*
X175669Y-152559D03*
Y-162559D03*
X165669Y-152559D03*
Y-162559D03*
X155669Y-152559D03*
Y-162559D03*
X175669Y-20748D03*
X165669D03*
X155669D03*
X175669Y-10748D03*
X165669D03*
X155669D03*
X195669Y-152559D03*
Y-162559D03*
X185669Y-152559D03*
Y-162559D03*
X195669Y-20748D03*
X185669D03*
X195669Y-10748D03*
X185669D03*
X215669Y-152559D03*
Y-162559D03*
X205669Y-152559D03*
Y-162559D03*
X215669Y-20748D03*
X205669D03*
X215669Y-10748D03*
X205669D03*
X246063Y-152559D03*
Y-162559D03*
X235669Y-152559D03*
Y-162559D03*
X225669Y-152559D03*
Y-162559D03*
X246063Y-20748D03*
X235669D03*
X225669D03*
X246063Y-10748D03*
X235669D03*
X225669D03*
X265669Y-152559D03*
Y-162559D03*
X255669Y-152559D03*
Y-162559D03*
X265669Y-20748D03*
X255669D03*
X265669Y-10748D03*
X255669D03*
X285669Y-152559D03*
Y-162559D03*
X275669Y-152559D03*
Y-162559D03*
X285669Y-20748D03*
X275669D03*
X285669Y-10748D03*
X275669D03*
G54D20*
X160945Y-133839D03*
Y-131280D03*
Y-128720D03*
Y-126161D03*
X179055Y-131280D03*
Y-133839D03*
Y-126161D03*
Y-128720D03*
G54D11*
X7244Y-60000D03*
Y-50000D03*
Y-40000D03*
X32756Y-70000D03*
X27244D03*
X12756Y-60000D03*
Y-50000D03*
Y-40000D03*
X52756Y-110000D03*
X47244D03*
X52756Y-120000D03*
X47244D03*
X57244Y-80000D03*
Y-70000D03*
X52756Y-40000D03*
X47244D03*
X62756Y-80000D03*
Y-70000D03*
X92756Y-40000D03*
X87244D03*
X112756D03*
X107244D03*
X142756Y-70000D03*
X137244D03*
X142756Y-60000D03*
X137244D03*
X142756Y-50000D03*
X137244D03*
X192756Y-180000D03*
X187244D03*
X197244Y-60000D03*
X212756Y-180000D03*
X207244D03*
X202756Y-60000D03*
X217244Y-80000D03*
X232756Y-180000D03*
X227244D03*
X222756Y-80000D03*
X242756Y-40000D03*
X237244D03*
X252756Y-180000D03*
X247244D03*
X267244D03*
X262756Y-50000D03*
X257244D03*
X262756Y-40000D03*
X257244D03*
X272756Y-180000D03*
X282756Y-130000D03*
X277244D03*
X282756Y-120000D03*
X277244D03*
X282756Y-110000D03*
X277244D03*
G54D12*
X8295Y-70000D03*
X31705Y-180000D03*
X28295D03*
X11705Y-70000D03*
X51705Y-180000D03*
X48295D03*
X78295Y-100000D03*
X71705Y-60000D03*
X68295D03*
X91705Y-180000D03*
X88295D03*
X81705Y-100000D03*
X111705Y-110000D03*
X108295D03*
X191705Y-70000D03*
X188295D03*
X218295Y-50000D03*
Y-40000D03*
X221705Y-50000D03*
Y-40000D03*
G54D21*
X175118Y-63740D03*
X164882D03*
X175118Y-56260D03*
X164882Y-60000D03*
Y-56260D03*
X265118Y-133740D03*
X254882D03*
X265118Y-126260D03*
X254882Y-130000D03*
Y-126260D03*
G54D13*
X4581Y-77500D03*
X31360Y-186900D03*
X20000Y-180000D03*
X31705Y-172500D03*
X17441Y-127752D03*
X22559Y-115077D03*
X32500Y-112188D03*
X22559Y-110488D03*
X20000Y-106188D03*
X17500Y-70000D03*
X27244Y-75000D03*
X50669Y-165000D03*
X37500Y-127500D03*
Y-120000D03*
X52500Y-62500D03*
X54369Y-80000D03*
X38719Y-70000D03*
X45000Y-77500D03*
X42500Y-67500D03*
X35000Y-65000D03*
X37500Y-77500D03*
X47244Y-44744D03*
X38719Y-42500D03*
X52500Y-30000D03*
X77500Y-135000D03*
X72500D03*
X65000Y-129644D03*
X74408Y-125512D03*
X78720Y-102500D03*
X60000Y-37328D03*
X72500Y-45000D03*
X85881Y-180000D03*
X91130Y-110000D03*
X95000Y-120000D03*
X100119Y-100000D03*
X90000Y-102363D03*
X85000Y-70000D03*
X102500Y-60000D03*
X85000D03*
X109840Y-120000D03*
X113047Y-105000D03*
X110140Y-90000D03*
X117500Y-75000D03*
Y-62500D03*
X107244Y-45256D03*
X117500Y-42372D03*
X122500Y-55000D03*
X125000Y-60000D03*
X120000Y-45000D03*
X147500Y-167500D03*
X145000Y-131280D03*
X143839Y-125000D03*
X130000Y-87500D03*
X143839Y-102500D03*
X141280D03*
X127500Y-72500D03*
X147238Y-70000D03*
X137500Y-75000D03*
X139440Y-39602D03*
X134369Y-60000D03*
X151419Y-133839D03*
X170000Y-130000D03*
X170692Y-124307D03*
X155000Y-127500D03*
X165000Y-87500D03*
X167500Y-97500D03*
X167501Y-67500D03*
X162500Y-82500D03*
X161416Y-55479D03*
Y-45450D03*
X166116Y-43663D03*
X157500Y-40000D03*
Y-50000D03*
X187500Y-140000D03*
X177500Y-112500D03*
Y-97500D03*
X196838Y-69999D03*
X181019Y-77500D03*
X194737Y-67500D03*
X179840Y-40000D03*
X192610Y-32391D03*
X220000Y-132500D03*
X212500Y-135000D03*
X220000Y-90000D03*
X202500Y-72500D03*
X212500Y-75000D03*
X220000Y-67500D03*
X198938Y-72500D03*
X215000Y-52500D03*
X199719Y-52550D03*
Y-37500D03*
X197500Y-42500D03*
X227500Y-140000D03*
X240000Y-132500D03*
X227500Y-105000D03*
X222756Y-75000D03*
X227500Y-52500D03*
X242500D03*
X227619Y-48300D03*
X241254Y-50000D03*
X239369Y-35000D03*
X245000Y-126260D03*
X247500Y-37591D03*
X272500Y-117500D03*
X269352Y-85000D03*
X273426Y-89074D03*
X274788Y-50000D03*
G54D22*
X195876Y-100000D03*
X184124D03*
X235876Y-60000D03*
X224124D03*
G54D14*
X27677Y-121024D03*
X25118D03*
X22559D03*
X20000D03*
X17441D03*
X14882D03*
X12323D03*
Y-98976D03*
X14882D03*
X17441D03*
X20000D03*
X22559D03*
X25118D03*
X27677D03*
G54D23*
X243976Y-100000D03*
X256024D03*
X263976Y-70000D03*
X276024D03*
G54D15*
X33047Y-50000D03*
X26953D03*
X73047Y-180000D03*
X66953D03*
X73047Y-40000D03*
X66953D03*
X113047Y-120000D03*
X106953D03*
X113047Y-90000D03*
X106953D03*
X113047Y-70000D03*
X106953D03*
X113047Y-80000D03*
X106953D03*
X143047Y-40000D03*
X136953D03*
X196953Y-130000D03*
Y-120000D03*
X183047Y-40000D03*
X176953D03*
X203047Y-130000D03*
Y-120000D03*
X263047Y-110000D03*
X256953D03*
X266953Y-80000D03*
X273047D03*
X283047Y-40000D03*
X276953D03*
G54D24*
X282949Y-100000D03*
X277051D03*
G54D25*
G01X5669Y-152559D02*
X10669Y-157559D01*
X27245D01*
X30669Y-160983D01*
Y-166673D01*
X46559Y-182563D01*
X51405D01*
X51705Y-182263D01*
Y-180000D01*
G01X5669Y-152559D02*
Y-103643D01*
X10336Y-98976D01*
X12323D01*
G01X5669Y-14600D02*
Y-10748D01*
G01D02*
Y-6896D01*
G01Y-10748D02*
X9521D01*
G01X20000Y-180000D02*
X30000Y-190000D01*
X177441D01*
X187244Y-180197D01*
G01X32756Y-72474D02*
Y-70000D01*
G01D02*
Y-67526D01*
G01X12756Y-52474D02*
Y-50000D01*
G01D02*
Y-47526D01*
G01X10479Y-50000D02*
X12756D01*
G01D02*
X15033D01*
G01X12756Y-42474D02*
Y-40000D01*
G01X10479D02*
X12756D01*
G01X30758Y-50000D02*
X33047D01*
G01D02*
X35336D01*
G01X51705Y-180000D02*
X51756D01*
X56756Y-185000D01*
X68161D01*
X73047Y-180114D01*
G01X52756Y-112474D02*
Y-110000D01*
G01D02*
Y-107526D01*
G01X50479Y-110000D02*
X52756D01*
G01Y-42474D02*
Y-40000D01*
G01D02*
Y-37526D01*
G01X50479Y-40000D02*
X52756D01*
G01X73047Y-180000D02*
Y-180114D01*
G01D02*
X75496Y-182563D01*
X91405D01*
X91705Y-182263D01*
Y-180000D01*
G01X76161Y-116667D02*
Y-114488D01*
G01D02*
Y-112309D01*
G01X62756Y-82474D02*
Y-80000D01*
G01D02*
Y-77526D01*
G01Y-80000D02*
X65033D01*
G01X62756Y-72474D02*
Y-70000D01*
G01X60479D02*
X62756D01*
G01X73047Y-42403D02*
Y-40000D01*
G01D02*
Y-37597D01*
G01X70758Y-40000D02*
X73047D01*
G01D02*
X75336D01*
G01X91705Y-180000D02*
Y-165171D01*
X90669Y-164135D01*
Y-133365D01*
X83839Y-126535D01*
Y-125512D01*
G01D02*
X81280D01*
G01X111705Y-110000D02*
X110909Y-110796D01*
Y-111685D01*
X110031Y-112563D01*
X108980D01*
X96031Y-125512D01*
X83839D01*
G01X92756Y-42474D02*
Y-40000D01*
G01X90479D02*
X92756D01*
G01D02*
X95033D01*
G01X137244Y-50000D02*
Y-53272D01*
X125000Y-65516D01*
Y-99019D01*
X114019Y-110000D01*
X111705D01*
G01X106953Y-82403D02*
Y-80000D01*
G01X104664D02*
X106953D01*
G01D02*
X109242D01*
G01X110758Y-70000D02*
X113047D01*
G01D02*
X115336D01*
G01X112756Y-42474D02*
Y-40000D01*
G01X110479D02*
X112756D01*
G01X135000Y-183852D02*
Y-180000D01*
G01D02*
Y-176148D01*
G01X131148Y-180000D02*
X135000D01*
G01D02*
X138852D01*
G01X142756Y-70000D02*
Y-67526D01*
G01X140479Y-70000D02*
X142756D01*
G01Y-52474D02*
Y-50000D01*
G01D02*
Y-47526D01*
G01X140479Y-50000D02*
X142756D01*
G01X160945Y-135340D02*
Y-133839D01*
G01D02*
X164397D01*
G01X192756Y-180000D02*
Y-177526D01*
G01Y-180000D02*
X195033D01*
G01X187244Y-180197D02*
X192047Y-185000D01*
X202441D01*
X207244Y-180197D01*
G01X187244D02*
Y-180000D01*
G01X212756D02*
Y-177526D01*
G01Y-180000D02*
X215033D01*
G01X207244Y-180197D02*
X212047Y-185000D01*
X222441D01*
X227244Y-180197D01*
G01X207244D02*
Y-180000D01*
G01X202756Y-62474D02*
Y-60000D01*
G01X220479Y-80000D02*
X222756D01*
G01X200479Y-60000D02*
X202756D01*
G01X232756Y-180000D02*
Y-177526D01*
G01Y-180000D02*
X235033D01*
G01X227244Y-180197D02*
X232047Y-185000D01*
X240000D01*
X244803Y-180197D01*
X247244D01*
G01X227244D02*
Y-180000D01*
G01X222756Y-82474D02*
Y-80000D01*
G01D02*
X225033D01*
G01X252756Y-180000D02*
Y-177526D01*
G01Y-180000D02*
X255033D01*
G01X247244Y-180197D02*
Y-180000D01*
G01X267244D02*
Y-182971D01*
X265215Y-185000D01*
X252047D01*
X247244Y-180197D01*
G01X263047Y-112403D02*
Y-110000D01*
G01D02*
X265336D01*
G01X256024Y-100000D02*
Y-96747D01*
G01X252310Y-100000D02*
X256024D01*
G01X262756Y-42474D02*
Y-40000D01*
G01X260479D02*
X262756D01*
G01X272756Y-182474D02*
Y-180000D01*
G01X270479D02*
X272756D01*
G01D02*
X275033D01*
G01X282756Y-112474D02*
Y-110000D01*
G01D02*
Y-107526D01*
G01X280479Y-110000D02*
X282756D01*
G01Y-122474D02*
Y-120000D01*
G01D02*
Y-117526D01*
G01X280479Y-120000D02*
X282756D01*
G01X277051Y-100000D02*
Y-97723D01*
G01Y-100000D02*
X279328D01*
G01X276024Y-73253D02*
Y-70000D01*
G01D02*
Y-66747D01*
G54D16*
X80000Y-120000D03*
G54D26*
G01X7244Y-60000D02*
Y-62971D01*
X7819Y-63546D01*
X11705D01*
G01X7244Y-40000D02*
Y-37029D01*
X9273Y-35000D01*
X45215D01*
X47244Y-37029D01*
Y-40000D01*
G01X120000Y-45000D02*
X110000Y-55000D01*
X12048D01*
X7244Y-50196D01*
Y-50000D01*
G01X30000Y-60000D02*
X17871D01*
X14325Y-63546D01*
X11705D01*
G01D02*
Y-70000D01*
G01X237244Y-37029D02*
X235215Y-35000D01*
X132900D01*
X102900Y-65000D01*
X69350D01*
X64350Y-60000D01*
X30000D01*
G01X81705Y-100000D02*
Y-83834D01*
X60371Y-62500D01*
X52500D01*
G01D02*
Y-68031D01*
X54469Y-70000D01*
X57244D01*
G01X47244Y-40000D02*
Y-44744D01*
G01D02*
X52500Y-50000D01*
X87244D01*
G01X81705Y-100000D02*
Y-102313D01*
X81280Y-102738D01*
Y-114488D01*
G01D02*
X83839D01*
G01X87244Y-50000D02*
Y-40000D01*
G01X107244Y-45256D02*
X102500Y-50000D01*
X87244D01*
G01X242756Y-40000D02*
Y-40196D01*
X230000Y-52952D01*
Y-67500D01*
X227000Y-70500D01*
X211999D01*
X194999Y-87500D01*
X184600D01*
X130669Y-141431D01*
Y-153782D01*
X126892Y-157559D01*
X124446D01*
X120669Y-161336D01*
Y-164331D01*
X105000Y-180000D01*
G01X107244Y-40000D02*
Y-45256D01*
G01X138720Y-90945D02*
Y-83720D01*
X127500Y-72500D01*
G01X138720Y-90945D02*
Y-94895D01*
X138825Y-95000D01*
X157500D01*
X165000Y-87500D01*
G01X137244Y-70000D02*
Y-69804D01*
X144026Y-63022D01*
X149477D01*
X159999Y-52500D01*
X166237D01*
X169997Y-56260D01*
X172068D01*
G01X170692Y-124307D02*
X175105Y-128720D01*
X179055D01*
G01X172068Y-56260D02*
Y-60831D01*
X170000Y-62899D01*
Y-82500D01*
X165000Y-87500D01*
G01X172068Y-56260D02*
X175118D01*
G01X224124Y-55767D02*
X213267D01*
X205000Y-47500D01*
X160000D01*
X157500Y-50000D01*
G01X202500Y-72500D02*
Y-72363D01*
X186397Y-56260D01*
X175118D01*
G01X212500Y-75000D02*
X214744D01*
X217244Y-77500D01*
G01D02*
Y-80000D01*
G01Y-77500D02*
X222244Y-72500D01*
X232500D01*
X240000Y-80000D01*
G01X217244D02*
Y-80196D01*
X242048Y-105000D01*
X267499D01*
X272499Y-110000D01*
G01X242756Y-40000D02*
Y-34058D01*
X230669Y-21971D01*
Y-19525D01*
X226892Y-15748D01*
X220669D01*
X215669Y-10748D01*
G01X240000Y-80000D02*
X243976Y-83976D01*
Y-87500D01*
G01D02*
X269834D01*
X273047Y-84287D01*
Y-80000D01*
G01X243976Y-87500D02*
Y-100000D01*
G01X237244Y-40000D02*
Y-37029D01*
G01X227500Y-52500D02*
X224233Y-55767D01*
X224124D01*
G01D02*
Y-60000D01*
G01X262756Y-50000D02*
Y-50196D01*
X259037Y-53915D01*
X243915D01*
X242500Y-52500D01*
G01X272499Y-110000D02*
Y-111920D01*
X265118Y-119301D01*
Y-126260D01*
G01X273047Y-80000D02*
Y-79071D01*
X263976Y-70000D01*
G01X257244Y-40000D02*
Y-39803D01*
G01D02*
X260125Y-36922D01*
X273989D01*
X276953Y-39886D01*
Y-40000D01*
G01X277244Y-110000D02*
X272499D01*
G54D17*
X78720Y-125512D03*
X76161D03*
Y-114488D03*
X78720D03*
X83839Y-125512D03*
X81280D03*
Y-114488D03*
X83839D03*
G54D27*
G01X8295Y-70000D02*
Y-73786D01*
X4581Y-77500D01*
G01X10281Y-45000D02*
X7197D01*
X4769Y-47428D01*
Y-53013D01*
X9084Y-57328D01*
G01D02*
X10084D01*
X12756Y-60000D01*
G01X165000Y-180000D02*
X158100Y-186900D01*
X31360D01*
G01D02*
X28295Y-183835D01*
Y-180000D01*
G01X31705D02*
Y-172500D01*
G01X77500Y-135000D02*
X74243Y-131743D01*
X18882D01*
X14882Y-127743D01*
Y-121024D01*
G01X50669Y-165000D02*
Y-144185D01*
X41019Y-134535D01*
X15635D01*
X10635Y-129535D01*
Y-110328D01*
X17441Y-103522D01*
Y-98976D01*
G01X27677Y-121024D02*
X29664D01*
G01D02*
X43360Y-107328D01*
X58982D01*
G01X17441Y-121024D02*
Y-127752D01*
G01X65000Y-129644D02*
X24074D01*
X20000Y-125570D01*
Y-121024D01*
G01X22559Y-115077D02*
Y-121024D01*
G01X37500Y-127500D02*
X24489D01*
X22559Y-125570D01*
Y-121024D01*
G01X12323D02*
Y-116478D01*
X16613Y-112188D01*
X30215D01*
G01D02*
Y-72201D01*
X30000Y-71986D01*
Y-60000D01*
G01X32500Y-112188D02*
X30215D01*
G01X22559Y-98976D02*
Y-110488D01*
G01X20000Y-98976D02*
Y-106188D01*
G01X32756Y-70000D02*
X38719D01*
G01X27244D02*
Y-75000D01*
G01X33047Y-44416D02*
X28631Y-40000D01*
G01X12756D02*
X10281Y-42475D01*
G01Y-45000D02*
Y-47525D01*
G01Y-42475D02*
Y-45000D01*
G01Y-47525D02*
X12756Y-50000D01*
G01X28631Y-40000D02*
X12756D01*
G01X26953Y-50000D02*
X29554Y-52601D01*
X109898D01*
X130108Y-32391D01*
X192610D01*
G01X50669Y-165000D02*
X48295Y-167374D01*
Y-180000D01*
G01X52756Y-120000D02*
X58982D01*
G01Y-110000D02*
X52756D01*
G01X47244Y-120000D02*
X37500D01*
G01X78720Y-125512D02*
Y-126156D01*
X76987Y-127889D01*
X55719D01*
X50000Y-122170D01*
Y-115727D01*
X47244Y-112971D01*
Y-110000D01*
G01X57244Y-80000D02*
X54369D01*
G01X60281Y-75000D02*
X43719D01*
X38719Y-70000D01*
G01X33047Y-50000D02*
Y-44416D01*
G01D02*
X36803D01*
X38719Y-42500D01*
G01X57328Y-40000D02*
X52756D01*
G01X72500Y-135000D02*
X70669Y-136831D01*
Y-173383D01*
X66953Y-177099D01*
Y-180000D01*
G01X80000Y-120000D02*
X73508D01*
G01D02*
Y-115488D01*
X74508Y-114488D01*
G01X58982Y-110000D02*
Y-120000D01*
G01D02*
X73508D01*
G01X58982Y-107328D02*
Y-110000D01*
G01X74508Y-114488D02*
X76161D01*
G01Y-125512D02*
X74408D01*
G01X78720Y-102500D02*
Y-114488D01*
G01X60281Y-80000D02*
Y-106029D01*
X58982Y-107328D01*
G01X78295Y-100000D02*
X78720Y-100425D01*
Y-102500D01*
G01X62756Y-80000D02*
X60281D01*
G01D02*
Y-75000D01*
G01D02*
Y-72475D01*
G01D02*
X62756Y-70000D01*
G01X60000Y-37328D02*
X57328Y-40000D01*
G01X75534Y-37328D02*
Y-37513D01*
G01Y-37328D02*
X77862Y-35000D01*
X92756D01*
G01X75534Y-37513D02*
X73047Y-40000D01*
G01X102500Y-60000D02*
X100237Y-57737D01*
X68295D01*
Y-60000D01*
G01X72500Y-45000D02*
X69052D01*
X66953Y-42901D01*
Y-40000D01*
G01X71705Y-60000D02*
X85000D01*
G01X60000Y-37328D02*
X75534D01*
G01X88295Y-180000D02*
X85881D01*
G01X108295Y-110000D02*
X91130D01*
G01X85000Y-70000D02*
Y-110000D01*
X95000Y-120000D01*
G01X110000Y-100000D02*
X100119D01*
G01X113047Y-80000D02*
Y-82901D01*
X110948Y-85000D01*
X107363D01*
X90000Y-102363D01*
G01X92756Y-40000D02*
Y-35000D01*
G01D02*
X110727D01*
X112756Y-37029D01*
G01X136161Y-109055D02*
Y-113005D01*
X129166Y-120000D01*
X113047D01*
G01X106953D02*
X109840D01*
G01X113047Y-90000D02*
Y-105000D01*
G01X106953Y-90000D02*
X110140D01*
G01X106953Y-70000D02*
Y-65547D01*
X127500Y-45000D01*
X145679D01*
X147016Y-43663D01*
X166116D01*
G01X113047Y-70000D02*
Y-75237D01*
G01Y-70000D02*
Y-64453D01*
G01X106953Y-80000D02*
Y-77099D01*
G01X113047Y-75237D02*
X117263D01*
X117500Y-75000D01*
G01X106953Y-77099D02*
X108815Y-75237D01*
X113047D01*
G01Y-64453D02*
X122500Y-55000D01*
G01X117500Y-62500D02*
X122500D01*
X125000Y-60000D01*
G01X117500Y-42372D02*
Y-40372D01*
X117128Y-40000D01*
G01D02*
X112756D01*
G01Y-37029D02*
Y-40000D01*
G01X139954Y-175046D02*
X135000Y-180000D01*
G01X139954Y-172500D02*
Y-175046D01*
G01X195231Y-177328D02*
X190403Y-172500D01*
X139954D01*
G01D02*
Y-167138D01*
X140669Y-166423D01*
Y-144589D01*
X151419Y-133839D01*
G01X147500Y-167500D02*
X167778D01*
X170669Y-164609D01*
Y-157559D01*
X175669Y-152559D01*
G01X160945Y-131280D02*
X145000D01*
G01X143839Y-102500D02*
Y-109055D01*
G01Y-125000D02*
Y-109055D01*
G01X141280D02*
Y-102500D01*
G01X167500Y-97500D02*
X142499D01*
X138720Y-101279D01*
Y-109055D01*
G01X130000Y-87500D02*
X132716D01*
X136161Y-90945D01*
G01X162500Y-82500D02*
X145775D01*
X141280Y-86995D01*
Y-90945D01*
G01X147238Y-70000D02*
X142756D01*
G01X137500Y-75000D02*
X134727Y-72227D01*
Y-67174D01*
G01X142756Y-70000D02*
Y-72971D01*
G01X147238Y-70000D02*
X157238Y-60000D01*
G01X134727Y-67174D02*
X141901Y-60000D01*
X142756D01*
G01Y-72971D02*
X140727Y-75000D01*
X137500D01*
G01X143047Y-40000D02*
X157500D01*
G01X136953D02*
X139042D01*
X139440Y-39602D01*
G01X142756Y-50000D02*
X143838D01*
X145538Y-51700D01*
G01D02*
X158408D01*
X159258Y-50850D01*
X200606D01*
G01X142756Y-60000D02*
X145531D01*
G01D02*
X145538Y-59993D01*
Y-51700D01*
G01X137244Y-60000D02*
X134369D01*
G01X179055Y-131280D02*
X171280D01*
X170000Y-130000D01*
G01X160945Y-133839D02*
X151419D01*
G01X160945Y-126161D02*
X162896D01*
X166595Y-122462D01*
X190430D01*
X192968Y-125000D01*
X200948D01*
X203047Y-122901D01*
Y-120000D01*
G01X155000Y-127500D02*
X156220Y-128720D01*
X160945D01*
G01X167501Y-67500D02*
X165501D01*
X164882Y-66881D01*
Y-63740D01*
G01Y-56260D02*
X164101Y-55479D01*
X161416D01*
G01X215000Y-52500D02*
X207950Y-45450D01*
X161416D01*
G01X221705Y-40000D02*
X220309Y-41396D01*
Y-41436D01*
X219782Y-41963D01*
X216808D01*
X215645Y-40800D01*
X192297D01*
X189434Y-43663D01*
X166116D01*
G01X157238Y-60000D02*
X164882D01*
G01X195231Y-177525D02*
X192756Y-180000D01*
G01X210281Y-177328D02*
X195231D01*
G01D02*
Y-177525D01*
G01X187500Y-140000D02*
X227500D01*
G01X179055Y-126161D02*
X187285D01*
X191124Y-130000D01*
X196953D01*
G01Y-120000D02*
Y-119886D01*
X199740Y-117099D01*
X205134D01*
X205834Y-117799D01*
Y-127099D01*
X203047Y-129886D01*
Y-130000D01*
G01X177500Y-112500D02*
X184051Y-105949D01*
X197105D01*
G01D02*
Y-101229D01*
X195876Y-100000D01*
G01X184124D02*
Y-99030D01*
G01D02*
X188741Y-94413D01*
X214413D01*
X220000Y-100000D01*
G01X177500Y-97500D02*
X179030Y-99030D01*
X184124D01*
G01X191705Y-70000D02*
X196837D01*
X196838Y-69999D01*
G01X181019Y-77500D02*
X193938D01*
X198938Y-72500D01*
G01X175118Y-63740D02*
X178483D01*
X181019Y-66276D01*
Y-77500D01*
G01X194737Y-67500D02*
X188532D01*
X188295Y-67737D01*
Y-70000D01*
G01X183047Y-40000D02*
X179840D01*
G01X199719Y-37500D02*
X199456Y-37237D01*
X179716D01*
X176953Y-40000D01*
G01X210281Y-177525D02*
X212756Y-180000D01*
G01X235235Y-177328D02*
X210281D01*
G01D02*
Y-177525D01*
G01X212330Y-112201D02*
X209306D01*
X203054Y-105949D01*
X197105D01*
G01X212330Y-112201D02*
X214531Y-110000D01*
X220000D01*
G01X265118Y-133740D02*
X259502D01*
X257421Y-135821D01*
X235950D01*
X212330Y-112201D01*
G01X220000Y-90000D02*
X240000Y-110000D01*
X256953D01*
G01X227500Y-105000D02*
X225000D01*
X220000Y-100000D01*
G01X212500Y-60000D02*
X220000Y-67500D01*
G01X218295Y-50000D02*
Y-52263D01*
X218058Y-52500D01*
X215000D01*
G01X197244Y-60000D02*
Y-55025D01*
X199719Y-52550D01*
G01X202756Y-60000D02*
X212500D01*
G01X200606Y-50850D02*
X202756Y-53000D01*
G01D02*
Y-60000D01*
G01X197500Y-42500D02*
X199150Y-44150D01*
X218118D01*
X221705Y-47737D01*
Y-50000D01*
G01X218295Y-40000D02*
Y-39037D01*
X219295Y-38037D01*
X225288D01*
X227619Y-40368D01*
Y-48300D01*
G01X235235Y-177521D02*
X232756Y-180000D01*
G01X250281Y-177328D02*
X235235D01*
G01D02*
Y-177521D01*
G01X240000Y-132500D02*
X253642D01*
X254882Y-133740D01*
G01X222756Y-80000D02*
Y-75000D01*
G01X241254Y-50000D02*
X257244D01*
G01X235876Y-60000D02*
Y-55378D01*
X241254Y-50000D01*
G01X239369Y-35000D02*
X237340Y-37029D01*
X237244D01*
G01X250281Y-177525D02*
X252756Y-180000D01*
G01X267953Y-175000D02*
X252609D01*
X250281Y-177328D01*
G01D02*
Y-177525D01*
G01X277244Y-130000D02*
Y-132971D01*
X276475Y-133740D01*
X265118D01*
G01X254882Y-130000D02*
X259779D01*
G01X285231Y-115000D02*
X272499D01*
X270000Y-117499D01*
Y-126379D01*
X266379Y-130000D01*
X262172D01*
X261391Y-129219D01*
X260560D01*
G01D02*
Y-128561D01*
X260000Y-128001D01*
Y-110261D01*
X260261Y-110000D01*
G01D02*
X263047D01*
G01X259779Y-130000D02*
X260560Y-129219D01*
G01X254882Y-126260D02*
X245000D01*
G01X277051Y-100000D02*
X256024D01*
G01X266953Y-80000D02*
Y-84601D01*
X267352Y-85000D01*
X269352D01*
G01X265531Y-40000D02*
X262756D01*
G01X271812Y-70000D02*
X270488Y-68676D01*
Y-44957D01*
X265531Y-40000D01*
G01X247500Y-37591D02*
X255032D01*
X257244Y-39803D01*
G01X272756Y-180000D02*
Y-179803D01*
X267953Y-175000D01*
G01D02*
Y-166003D01*
X270669Y-163287D01*
Y-147571D01*
X285231Y-133009D01*
Y-120000D01*
G01X282756Y-110000D02*
X285231D01*
G01D02*
Y-115000D01*
G01Y-110000D02*
X287500Y-107731D01*
Y-105000D01*
G01X285231Y-120000D02*
X282756D01*
G01X285231Y-115000D02*
Y-120000D01*
G01X282756Y-130000D02*
Y-129804D01*
X277244Y-124292D01*
Y-120000D01*
G01X272500Y-117500D02*
Y-119500D01*
X273000Y-120000D01*
X277244D01*
G01X277051Y-100000D02*
Y-102775D01*
G01X287500Y-105000D02*
Y-77264D01*
X280236Y-70000D01*
G01X277051Y-102775D02*
X279276Y-105000D01*
X287500D01*
G01X273426Y-89074D02*
X275426D01*
X282949Y-96597D01*
Y-100000D01*
G01X276024Y-70000D02*
X271812D01*
G01X280236D02*
X276024D01*
G01X280000Y-50000D02*
X274788D01*
G54D18*
X110000Y-100000D03*
X220000Y-110000D03*
Y-100000D03*
X240000Y-80000D03*
X280000Y-50000D03*
G54D19*
X143839Y-109055D03*
X141280D03*
X138720D03*
X136161D03*
Y-90945D03*
X138720D03*
X141280D03*
X143839D03*
M02*
